<svg xmlns="http://www.w3.org/2000/svg" width="1600" height="1100" viewBox="0 0 1600 1100">
<defs>
<marker id="arrow" viewBox="0 0 10 10" refX="9" refY="5" markerWidth="10" markerHeight="10" orient="auto-start-reverse">
<path d="M 0 0 L 10 5 L 0 10 z" fill="#000000"/>
</marker>
</defs>
<rect width="100%" height="100%" fill="#ffffff"/>
<g stroke="#000000" fill="#ffffff" stroke-width="2.2" stroke-linecap="round" stroke-linejoin="round" font-family="Microsoft YaHei, SimSun, Arial, sans-serif">
<circle cx="90" cy="325" r="20"/>
<line x1="90" y1="345" x2="90" y2="429"/>
<line x1="56" y1="359" x2="124" y2="359"/>
<line x1="90" y1="429" x2="60" y2="479"/>
<line x1="90" y1="429" x2="120" y2="479"/>
<text x="90" y="524.0" fill="#000000" stroke="none" font-size="26" font-weight="bold" text-anchor="middle"><tspan x="90" dy="0">技术交流人群</tspan></text>
<rect x="210" y="230" width="180" height="96" rx="14" ry="14"/>
<text x="300.0" y="261.8" fill="#000000" stroke="none" font-size="24" font-weight="normal" text-anchor="middle"><tspan x="300.0" dy="0">进入系统</tspan><tspan x="300.0" dy="32.400000000000006">登录并进入主界面</tspan></text>
<rect x="460" y="230" width="180" height="96" rx="14" ry="14"/>
<text x="550.0" y="278.0" fill="#000000" stroke="none" font-size="24" font-weight="bold" text-anchor="middle"><tspan x="550.0" dy="0">选择交流空间</tspan></text>
<rect x="710" y="230" width="200" height="96" rx="14" ry="14"/>
<text x="810.0" y="261.8" fill="#000000" stroke="none" font-size="24" font-weight="normal" text-anchor="middle"><tspan x="810.0" dy="0">发起技术问题</tspan><tspan x="810.0" dy="32.400000000000006">文本 / 代码 / 文件</tspan></text>
<rect x="980" y="230" width="210" height="96" rx="14" ry="14"/>
<text x="1085.0" y="245.6" fill="#000000" stroke="none" font-size="24" font-weight="normal" text-anchor="middle"><tspan x="1085.0" dy="0">获得反馈</tspan><tspan x="1085.0" dy="32.400000000000006">成员回复 / 引用补充</tspan><tspan x="1085.0" dy="32.400000000000006">AI辅助 / 总结建议</tspan></text>
<rect x="1260" y="230" width="190" height="96" rx="14" ry="14"/>
<text x="1355.0" y="261.8" fill="#000000" stroke="none" font-size="24" font-weight="normal" text-anchor="middle"><tspan x="1355.0" dy="0">沉淀关键结果</tspan><tspan x="1355.0" dy="32.400000000000006">收藏 / 标签 / 备注</tspan></text>
<rect x="1490" y="230" width="90" height="96" rx="14" ry="14"/>
<text x="1535.0" y="261.8" fill="#000000" stroke="none" font-size="24" font-weight="normal" text-anchor="middle"><tspan x="1535.0" dy="0">检索</tspan><tspan x="1535.0" dy="32.400000000000006">复用</tspan></text>
<rect x="400" y="420" width="90" height="56" rx="14" ry="14"/>
<text x="445.0" y="448.0" fill="#000000" stroke="none" font-size="22" font-weight="normal" text-anchor="middle"><tspan x="445.0" dy="0">私聊</tspan></text>
<rect x="515" y="420" width="90" height="56" rx="14" ry="14"/>
<text x="560.0" y="448.0" fill="#000000" stroke="none" font-size="22" font-weight="normal" text-anchor="middle"><tspan x="560.0" dy="0">群聊</tspan></text>
<rect x="630" y="420" width="120" height="56" rx="14" ry="14"/>
<text x="690.0" y="448.0" fill="#000000" stroke="none" font-size="20" font-weight="normal" text-anchor="middle"><tspan x="690.0" dy="0">技术聊天室</tspan></text>
<line x1="124" y1="278" x2="210" y2="278" marker-end="url(#arrow)"/>
<line x1="390" y1="278" x2="460" y2="278" marker-end="url(#arrow)"/>
<line x1="640" y1="278" x2="710" y2="278" marker-end="url(#arrow)"/>
<line x1="910" y1="278" x2="980" y2="278" marker-end="url(#arrow)"/>
<line x1="1190" y1="278" x2="1260" y2="278" marker-end="url(#arrow)"/>
<line x1="1450" y1="278" x2="1490" y2="278" marker-end="url(#arrow)"/>
<polyline points="550,326 550,380 445,380 445,420" fill="none" marker-end="url(#arrow)"/>
<polyline points="550,326 550,390 560,390 560,420" fill="none" marker-end="url(#arrow)"/>
<polyline points="550,326 550,380 690,380 690,420" fill="none" marker-end="url(#arrow)"/>
<rect x="330" y="630" width="940" height="110" rx="14" ry="14" stroke-dasharray="10 8"/>
<text x="800.0" y="685.0" fill="#000000" stroke="none" font-size="27" font-weight="bold" text-anchor="middle"><tspan x="800.0" dy="0">覆盖实时沟通、AI辅助分析、关键内容沉淀与后续复用</tspan></text>
<polyline points="1535,326 1535,560 810,560 810,326" fill="none" marker-end="url(#arrow)"/>
<text x="1170" y="530.0" fill="#000000" stroke="none" font-size="22" font-weight="normal" text-anchor="start"><tspan x="1170" dy="0">再次调用既有结论</tspan></text>
</g>
</svg>
