<svg xmlns="http://www.w3.org/2000/svg" width="1600" height="1100" viewBox="0 0 1600 1100">
<defs>
<marker id="arrow" viewBox="0 0 10 10" refX="9" refY="5" markerWidth="10" markerHeight="10" orient="auto-start-reverse">
<path d="M 0 0 L 10 5 L 0 10 z" fill="#000000"/>
</marker>
</defs>
<rect width="100%" height="100%" fill="#ffffff"/>
<g stroke="#000000" fill="#ffffff" stroke-width="2.2" stroke-linecap="round" stroke-linejoin="round" font-family="Microsoft YaHei, SimSun, Arial, sans-serif">
<rect x="620" y="70" width="250" height="86" rx="14" ry="14"/>
<text x="745.0" y="96.125" fill="#000000" stroke="none" font-size="25" font-weight="bold" text-anchor="middle"><tspan x="745.0" dy="0">登录认证</tspan><tspan x="745.0" dy="33.75">邮箱 / 验证码 / OAuth</tspan></text>
<rect x="620" y="200" width="250" height="86" rx="14" ry="14"/>
<text x="745.0" y="226.125" fill="#000000" stroke="none" font-size="25" font-weight="normal" text-anchor="middle"><tspan x="745.0" dy="0">选择会话空间</tspan><tspan x="745.0" dy="33.75">私聊 / 群聊 / 聊天室</tspan></text>
<rect x="620" y="330" width="250" height="86" rx="14" ry="14"/>
<text x="745.0" y="356.125" fill="#000000" stroke="none" font-size="25" font-weight="normal" text-anchor="middle"><tspan x="745.0" dy="0">加载上下文</tspan><tspan x="745.0" dy="33.75">历史消息 / 在线状态 / 公告资料</tspan></text>
<rect x="620" y="460" width="250" height="86" rx="14" ry="14"/>
<text x="745.0" y="486.125" fill="#000000" stroke="none" font-size="25" font-weight="normal" text-anchor="middle"><tspan x="745.0" dy="0">发送消息</tspan><tspan x="745.0" dy="33.75">文本 / 代码 / 图片 / 文件</tspan></text>
<rect x="1110" y="460" width="280" height="86" rx="14" ry="14"/>
<text x="1250.0" y="486.125" fill="#000000" stroke="none" font-size="25" font-weight="normal" text-anchor="middle"><tspan x="1250.0" dy="0">后端校验与权限检查</tspan><tspan x="1250.0" dy="33.75">JWT / 参数 / 会话边界</tspan></text>
<rect x="1110" y="610" width="280" height="86" rx="14" ry="14"/>
<text x="1250.0" y="636.125" fill="#000000" stroke="none" font-size="25" font-weight="normal" text-anchor="middle"><tspan x="1250.0" dy="0">持久化与服务处理</tspan><tspan x="1250.0" dy="33.75">MongoDB / 附件 / 业务路由</tspan></text>
<rect x="620" y="610" width="250" height="86" rx="14" ry="14"/>
<text x="745.0" y="636.125" fill="#000000" stroke="none" font-size="25" font-weight="normal" text-anchor="middle"><tspan x="745.0" dy="0">实时推送与界面更新</tspan><tspan x="745.0" dy="33.75">Socket.IO / REST 返回</tspan></text>
<rect x="620" y="760" width="250" height="86" rx="14" ry="14"/>
<text x="745.0" y="786.125" fill="#000000" stroke="none" font-size="25" font-weight="normal" text-anchor="middle"><tspan x="745.0" dy="0">成员回复与补充</tspan><tspan x="745.0" dy="33.75">引用回复 / 方案比较 / 继续追问</tspan></text>
<polygon points="745,870.0 875.0,930 745,990.0 615.0,930"/>
<text x="745" y="913.125" fill="#000000" stroke="none" font-size="25" font-weight="bold" text-anchor="middle"><tspan x="745" dy="0">问题</tspan><tspan x="745" dy="33.75">是否解决</tspan></text>
<rect x="1110" y="880" width="280" height="96" rx="14" ry="14"/>
<text x="1250.0" y="911.125" fill="#000000" stroke="none" font-size="25" font-weight="normal" text-anchor="middle"><tspan x="1250.0" dy="0">调用AI问答与总结</tspan><tspan x="1250.0" dy="33.75">RAG 检索 / 流式回答 / 讨论摘要</tspan></text>
<rect x="620" y="1010" width="250" height="86" rx="14" ry="14"/>
<text x="745.0" y="1036.125" fill="#000000" stroke="none" font-size="25" font-weight="normal" text-anchor="middle"><tspan x="745.0" dy="0">结果沉淀</tspan><tspan x="745.0" dy="33.75">收藏 / 标签 / 备注</tspan></text>
<rect x="1020" y="1010" width="280" height="86" rx="14" ry="14"/>
<text x="1160.0" y="1036.125" fill="#000000" stroke="none" font-size="25" font-weight="normal" text-anchor="middle"><tspan x="1160.0" dy="0">再次复用</tspan><tspan x="1160.0" dy="33.75">关键词搜索 / 收藏回看 / 历史检索</tspan></text>
<line x1="745" y1="156" x2="745" y2="200" marker-end="url(#arrow)"/>
<line x1="745" y1="286" x2="745" y2="330" marker-end="url(#arrow)"/>
<line x1="745" y1="416" x2="745" y2="460" marker-end="url(#arrow)"/>
<line x1="870" y1="503" x2="1110" y2="503" marker-end="url(#arrow)"/>
<line x1="1250" y1="546" x2="1250" y2="610" marker-end="url(#arrow)"/>
<line x1="1110" y1="653" x2="870" y2="653" marker-end="url(#arrow)"/>
<line x1="745" y1="696" x2="745" y2="760" marker-end="url(#arrow)"/>
<line x1="745" y1="846" x2="745" y2="870" marker-end="url(#arrow)"/>
<polyline points="875,930 980,930 980,928 1110,928" fill="none" marker-end="url(#arrow)"/>
<polyline points="1250,976 1250,980 1250,803 870,803" fill="none" marker-end="url(#arrow)"/>
<text x="1135" y="790.0" fill="#000000" stroke="none" font-size="22" font-weight="normal" text-anchor="middle"><tspan x="1135" dy="0">未解决</tspan></text>
<text x="690" y="986.0" fill="#000000" stroke="none" font-size="22" font-weight="normal" text-anchor="middle"><tspan x="690" dy="0">已解决</tspan></text>
<line x1="745" y1="990" x2="745" y2="1010" marker-end="url(#arrow)"/>
<line x1="870" y1="1053" x2="1020" y2="1053" marker-end="url(#arrow)"/>
<rect x="350" y="875" width="170" height="120" rx="14" ry="14" stroke-dasharray="10 8"/>
<text x="435.0" y="875.6" fill="#000000" stroke="none" font-size="22" font-weight="normal" text-anchor="middle"><tspan x="435.0" dy="0">业务闭环</tspan><tspan x="435.0" dy="29.700000000000003">进入空间</tspan><tspan x="435.0" dy="29.700000000000003">→ 讨论协作</tspan><tspan x="435.0" dy="29.700000000000003">→ 结果沉淀</tspan><tspan x="435.0" dy="29.700000000000003">→ 再次复用</tspan></text>
</g>
</svg>
