<svg xmlns="http://www.w3.org/2000/svg" width="1600" height="1100" viewBox="0 0 1600 1100">
<defs>
<marker id="arrow" viewBox="0 0 10 10" refX="9" refY="5" markerWidth="10" markerHeight="10" orient="auto-start-reverse">
<path d="M 0 0 L 10 5 L 0 10 z" fill="#000000"/>
</marker>
</defs>
<rect width="100%" height="100%" fill="#ffffff"/>
<g stroke="#000000" fill="#ffffff" stroke-width="2.2" stroke-linecap="round" stroke-linejoin="round" font-family="Microsoft YaHei, SimSun, Arial, sans-serif">
<circle cx="120" cy="360" r="20"/>
<line x1="120" y1="380" x2="120" y2="464"/>
<line x1="86" y1="394" x2="154" y2="394"/>
<line x1="120" y1="464" x2="90" y2="514"/>
<line x1="120" y1="464" x2="150" y2="514"/>
<text x="120" y="559.0" fill="#000000" stroke="none" font-size="26" font-weight="bold" text-anchor="middle"><tspan x="120" dy="0">个人开发者</tspan></text>
<rect x="300" y="100" width="1230" height="860" rx="10" ry="10"/>
<text x="324" y="130.0" fill="#000000" stroke="none" font-size="24" font-weight="bold" text-anchor="start"><tspan x="324" dy="0">智能聊天室系统</tspan></text>
<ellipse cx="670" cy="220" rx="180" ry="56"/>
<text x="670" y="220.0" fill="#000000" stroke="none" font-size="23" font-weight="normal" text-anchor="middle"><tspan x="670" dy="0">向AI助手提问</tspan></text>
<ellipse cx="1080" cy="220" rx="170" ry="56"/>
<text x="1080" y="220.0" fill="#000000" stroke="none" font-size="23" font-weight="normal" text-anchor="middle"><tspan x="1080" dy="0">继续追问代码细节</tspan></text>
<ellipse cx="670" cy="460" rx="180" ry="56"/>
<text x="670" y="460.0" fill="#000000" stroke="none" font-size="23" font-weight="normal" text-anchor="middle"><tspan x="670" dy="0">创建临时技术聊天室</tspan></text>
<ellipse cx="1080" cy="460" rx="190" ry="56"/>
<text x="1080" y="460.0" fill="#000000" stroke="none" font-size="23" font-weight="normal" text-anchor="middle"><tspan x="1080" dy="0">收藏AI回复 / 关键消息</tspan></text>
<ellipse cx="670" cy="720" rx="170" ry="56"/>
<text x="670" y="720.0" fill="#000000" stroke="none" font-size="23" font-weight="normal" text-anchor="middle"><tspan x="670" dy="0">添加标签与备注</tspan></text>
<ellipse cx="1080" cy="720" rx="210" ry="56"/>
<text x="1080" y="720.0" fill="#000000" stroke="none" font-size="23" font-weight="normal" text-anchor="middle"><tspan x="1080" dy="0">检索收藏并回看原会话</tspan></text>
<line x1="180" y1="220" x2="490" y2="220" marker-end="url(#arrow)"/>
<line x1="180" y1="460" x2="490" y2="460" marker-end="url(#arrow)"/>
<line x1="180" y1="720" x2="490" y2="720" marker-end="url(#arrow)"/>
<line x1="180" y1="600" x2="900" y2="600" marker-end="url(#arrow)"/>
<line x1="850" y1="220" x2="910" y2="220" marker-end="url(#arrow)"/>
<line x1="860" y1="460" x2="890" y2="460" marker-end="url(#arrow)"/>
<line x1="840" y1="720" x2="870" y2="720" marker-end="url(#arrow)"/>
<polyline points="670,276 670,330 1080,330 1080,164" fill="none" marker-end="url(#arrow)" stroke-dasharray="10 8"/>
<text x="935" y="320.0" fill="#000000" stroke="none" font-size="18" font-weight="normal" text-anchor="middle"><tspan x="935" dy="0">&lt;&lt;include&gt;&gt;</tspan></text>
<polyline points="1080,516 1080,590 670,590 670,664" fill="none" marker-end="url(#arrow)" stroke-dasharray="10 8"/>
<text x="890" y="575.0" fill="#000000" stroke="none" font-size="18" font-weight="normal" text-anchor="middle"><tspan x="890" dy="0">&lt;&lt;include&gt;&gt;</tspan></text>
<polyline points="1080,516 1080,600 1080,664" fill="none" marker-end="url(#arrow)"/>
</g>
</svg>
