<?xml version="1.0" encoding="UTF-8" standalone="yes"?><svg font-family="Microsoft YaHei, SimHei, sans-serif" xmlns="http://www.w3.org/2000/svg" xmlns:xlink="http://www.w3.org/1999/xlink" version="1.2" baseProfile="tiny" x="0" y="0" width="480" height="660" viewBox="0 0 480 660"><defs/><defs><marker id="arrow" viewBox="0 0 8 8" refX="6" refY="3" markerWidth="8" markerHeight="8" markerUnits="strokeWidth" orient="auto"><path fill="#6b7280" d="M 0 0 L 0 6 L 8 3 L 0 0 Z"/></marker></defs><ellipse fill="#1e40af" stroke="#1e3a8a" stroke-width="1.5" cx="240" cy="28" rx="40" ry="18"/><text fill="#ffffff" font-size="12" text-anchor="middle" x="240" y="33"><tspan>开始</tspan></text><line stroke="#6b7280" stroke-width="1.5" x1="240" y1="46" x2="240" y2="64" marker-end="url(#arrow)"/><rect fill="#dbeafe" stroke="#3b82f6" stroke-width="1.5" x="155" y="64" width="170" height="34" rx="17" ry="17"/><text fill="#1e40af" font-size="12" text-anchor="middle" x="240" y="86"><tspan>遇到技术问题</tspan></text><line stroke="#6b7280" stroke-width="1.5" x1="240" y1="98" x2="240" y2="116" marker-end="url(#arrow)"/><rect fill="#dbeafe" stroke="#3b82f6" stroke-width="1.5" x="155" y="116" width="170" height="34" rx="17" ry="17"/><text fill="#1e40af" font-size="12" text-anchor="middle" x="240" y="138"><tspan>召唤AI助手</tspan></text><line stroke="#6b7280" stroke-width="1.5" x1="240" y1="150" x2="240" y2="168" marker-end="url(#arrow)"/><rect fill="#dbeafe" stroke="#3b82f6" stroke-width="1.5" x="155" y="168" width="170" height="34" rx="17" ry="17"/><text fill="#1e40af" font-size="12" text-anchor="middle" x="240" y="190"><tspan>描述问题</tspan></text><line stroke="#6b7280" stroke-width="1.5" x1="240" y1="202" x2="240" y2="220" marker-end="url(#arrow)"/><polygon fill="#fef3c7" stroke="#f59e0b" stroke-width="1.5" points="240,220 315,250 240,280 165,250"/><text fill="#92400e" font-size="11" text-anchor="middle" x="240" y="246"><tspan>是否附带</tspan></text><text fill="#92400e" font-size="11" text-anchor="middle" x="240" y="260"><tspan>代码?</tspan></text><line stroke="#6b7280" stroke-width="1.5" x1="315" y1="250" x2="385" y2="250" marker-end="url(#arrow)"/><text fill="#22c55e" font-size="11" text-anchor="middle" x="350" y="243"><tspan>是</tspan></text><rect fill="#dcfce7" stroke="#22c55e" stroke-width="1.5" x="385" y="234" width="80" height="32" rx="4" ry="4"/><text fill="#15803d" font-size="11" text-anchor="middle" x="425" y="255"><tspan>附加代码片段</tspan></text><line stroke="#6b7280" stroke-width="1.5" x1="425" y1="266" x2="425" y2="308"/><line stroke="#6b7280" stroke-width="1.5" x1="425" y1="308" x2="240" y2="308" marker-end="url(#arrow)"/><line stroke="#6b7280" stroke-width="1.5" x1="240" y1="280" x2="240" y2="308" marker-end="url(#arrow)"/><text fill="#ef4444" font-size="11" text-anchor="middle" x="220" y="298"><tspan>否</tspan></text><rect fill="#dbeafe" stroke="#3b82f6" stroke-width="1.5" x="155" y="308" width="170" height="34" rx="17" ry="17"/><text fill="#1e40af" font-size="12" text-anchor="middle" x="240" y="330"><tspan>提交问题</tspan></text><line stroke="#6b7280" stroke-width="1.5" x1="240" y1="342" x2="240" y2="360" marker-end="url(#arrow)"/><rect fill="#fef3c7" stroke="#f59e0b" stroke-width="1.5" x="155" y="360" width="170" height="34" rx="17" ry="17"/><text fill="#92400e" font-size="12" text-anchor="middle" x="240" y="382"><tspan>AI分析并检索信息</tspan></text><line stroke="#6b7280" stroke-width="1.5" x1="240" y1="394" x2="240" y2="412" marker-end="url(#arrow)"/><rect fill="#fef3c7" stroke="#f59e0b" stroke-width="1.5" x="155" y="412" width="170" height="34" rx="17" ry="17"/><text fill="#92400e" font-size="12" text-anchor="middle" x="240" y="434"><tspan>生成回答(流式输出)</tspan></text><line stroke="#6b7280" stroke-width="1.5" x1="240" y1="446" x2="240" y2="464" marker-end="url(#arrow)"/><polygon fill="#fef3c7" stroke="#f59e0b" stroke-width="1.5" points="240,464 315,494 240,524 165,494"/><text fill="#92400e" font-size="11" text-anchor="middle" x="240" y="490"><tspan>问题</tspan></text><text fill="#92400e" font-size="11" text-anchor="middle" x="240" y="504"><tspan>解决?</tspan></text><line stroke="#6b7280" stroke-width="1.5" x1="315" y1="494" x2="385" y2="494" marker-end="url(#arrow)"/><text fill="#ef4444" font-size="11" text-anchor="middle" x="350" y="487"><tspan>否</tspan></text><rect fill="#fee2e2" stroke="#ef4444" stroke-width="1.5" x="385" y="478" width="70" height="32" rx="3.85" ry="4"/><text fill="#b91c1c" font-size="11" text-anchor="middle" x="420" y="499"><tspan>继续追问</tspan></text><line stroke="#6b7280" stroke-width="1.5" x1="420" y1="478" x2="420" y2="377"/><line stroke="#6b7280" stroke-width="1.5" x1="420" y1="377" x2="325" y2="377" marker-end="url(#arrow)"/><line stroke="#6b7280" stroke-width="1.5" x1="240" y1="524" x2="240" y2="544" marker-end="url(#arrow)"/><text fill="#22c55e" font-size="11" text-anchor="middle" x="220" y="538"><tspan>是</tspan></text><ellipse fill="#1e40af" stroke="#1e3a8a" stroke-width="1.5" cx="240" cy="562" rx="40" ry="18"/><text fill="#ffffff" font-size="12" text-anchor="middle" x="240" y="567"><tspan>结束</tspan></text></svg>
