<?xml version="1.0" encoding="UTF-8" standalone="yes"?><svg font-family="Microsoft YaHei, SimHei, sans-serif" xmlns="http://www.w3.org/2000/svg" xmlns:xlink="http://www.w3.org/1999/xlink" version="1.2" baseProfile="tiny" x="0" y="0" width="480" height="620" viewBox="0 0 480 620"><defs/><ellipse fill="#1e40af" stroke="#1e3a8a" stroke-width="1.5" cx="240" cy="30" rx="40" ry="20"/><text fill="#ffffff" font-size="12" text-anchor="middle" x="240" y="35"><tspan>开始</tspan></text><line stroke="#6b7280" stroke-width="1.5" x1="240" y1="50" x2="240" y2="70" marker-end="url(#arrow)"/><rect fill="#dbeafe" stroke="#3b82f6" stroke-width="1.5" x="160" y="70" width="160" height="36" rx="17.6" ry="18"/><text fill="#1e40af" font-size="12" text-anchor="middle" x="240" y="93"><tspan>选择群组</tspan></text><line stroke="#6b7280" stroke-width="1.5" x1="240" y1="106" x2="240" y2="126" marker-end="url(#arrow)"/><rect fill="#dbeafe" stroke="#3b82f6" stroke-width="1.5" x="160" y="126" width="160" height="36" rx="17.6" ry="18"/><text fill="#1e40af" font-size="12" text-anchor="middle" x="240" y="149"><tspan>编写消息</tspan></text><line stroke="#6b7280" stroke-width="1.5" x1="240" y1="162" x2="240" y2="182" marker-end="url(#arrow)"/><polygon fill="#fef3c7" stroke="#f59e0b" stroke-width="1.5" points="240,182 310,212 240,242 170,212"/><text fill="#92400e" font-size="11" text-anchor="middle" x="240" y="208"><tspan>是否添加</tspan></text><text fill="#92400e" font-size="11" text-anchor="middle" x="240" y="222"><tspan>代码?</tspan></text><line stroke="#6b7280" stroke-width="1.5" x1="310" y1="212" x2="380" y2="212" marker-end="url(#arrow)"/><text fill="#22c55e" font-size="11" text-anchor="middle" x="345" y="205"><tspan>是</tspan></text><rect fill="#dcfce7" stroke="#22c55e" stroke-width="1.5" x="380" y="196" width="80" height="32" rx="4" ry="4"/><text fill="#15803d" font-size="11" text-anchor="middle" x="420" y="217"><tspan>插入代码片段</tspan></text><line stroke="#6b7280" stroke-width="1.5" x1="420" y1="228" x2="420" y2="270"/><line stroke="#6b7280" stroke-width="1.5" x1="420" y1="270" x2="240" y2="270" marker-end="url(#arrow)"/><line stroke="#6b7280" stroke-width="1.5" x1="240" y1="242" x2="240" y2="270" marker-end="url(#arrow)"/><text fill="#ef4444" font-size="11" text-anchor="middle" x="220" y="260"><tspan>否</tspan></text><polygon fill="#fef3c7" stroke="#f59e0b" stroke-width="1.5" points="240,270 310,300 240,330 170,300"/><text fill="#92400e" font-size="11" text-anchor="middle" x="240" y="296"><tspan>是否上传</tspan></text><text fill="#92400e" font-size="11" text-anchor="middle" x="240" y="310"><tspan>文件?</tspan></text><line stroke="#6b7280" stroke-width="1.5" x1="310" y1="300" x2="380" y2="300" marker-end="url(#arrow)"/><text fill="#22c55e" font-size="11" text-anchor="middle" x="345" y="293"><tspan>是</tspan></text><rect fill="#dcfce7" stroke="#22c55e" stroke-width="1.5" x="380" y="284" width="80" height="32" rx="4" ry="4"/><text fill="#15803d" font-size="11" text-anchor="middle" x="420" y="305"><tspan>上传附件文件</tspan></text><line stroke="#6b7280" stroke-width="1.5" x1="420" y1="316" x2="420" y2="358"/><line stroke="#6b7280" stroke-width="1.5" x1="420" y1="358" x2="240" y2="358" marker-end="url(#arrow)"/><line stroke="#6b7280" stroke-width="1.5" x1="240" y1="330" x2="240" y2="358" marker-end="url(#arrow)"/><text fill="#ef4444" font-size="11" text-anchor="middle" x="220" y="348"><tspan>否</tspan></text><rect fill="#dbeafe" stroke="#3b82f6" stroke-width="1.5" x="160" y="358" width="160" height="36" rx="17.6" ry="18"/><text fill="#1e40af" font-size="12" text-anchor="middle" x="240" y="381"><tspan>点击发送按钮</tspan></text><line stroke="#6b7280" stroke-width="1.5" x1="240" y1="394" x2="240" y2="414" marker-end="url(#arrow)"/><polygon fill="#fef3c7" stroke="#f59e0b" stroke-width="1.5" points="240,414 310,444 240,474 170,444"/><text fill="#92400e" font-size="11" text-anchor="middle" x="240" y="440"><tspan>内容</tspan></text><text fill="#92400e" font-size="11" text-anchor="middle" x="240" y="454"><tspan>验证通过?</tspan></text><line stroke="#6b7280" stroke-width="1.5" x1="240" y1="474" x2="240" y2="494" marker-end="url(#arrow)"/><text fill="#22c55e" font-size="11" text-anchor="middle" x="220" y="488"><tspan>通过</tspan></text><rect fill="#dbeafe" stroke="#3b82f6" stroke-width="1.5" x="160" y="494" width="160" height="36" rx="17.6" ry="18"/><text fill="#1e40af" font-size="12" text-anchor="middle" x="240" y="517"><tspan>存储并推送消息</tspan></text><line stroke="#6b7280" stroke-width="1.5" x1="240" y1="530" x2="240" y2="550" marker-end="url(#arrow)"/><ellipse fill="#1e40af" stroke="#1e3a8a" stroke-width="1.5" cx="240" cy="570" rx="40" ry="20"/><text fill="#ffffff" font-size="12" text-anchor="middle" x="240" y="575"><tspan>结束</tspan></text><defs><marker id="arrow" viewBox="0 0 8 8" refX="6" refY="3" markerWidth="8" markerHeight="8" markerUnits="strokeWidth" orient="auto"><path fill="#6b7280" d="M 0 0 L 0 6 L 8 3 L 0 0 Z"/></marker></defs></svg>
