<?xml version="1.0" encoding="UTF-8" standalone="yes"?><svg font-family="Microsoft YaHei, SimHei, sans-serif" xmlns="http://www.w3.org/2000/svg" xmlns:xlink="http://www.w3.org/1999/xlink" version="1.2" baseProfile="tiny" x="0" y="0" width="620" height="420" viewBox="0 0 620 420"><defs/><defs><marker id="arrow" viewBox="0 0 8 8" refX="6" refY="3" markerWidth="8" markerHeight="8" markerUnits="strokeWidth" orient="auto"><path fill="#6b7280" d="M 0 0 L 0 6 L 8 3 L 0 0 Z"/></marker></defs><rect fill="#dbeafe" stroke="#3b82f6" stroke-width="1.5" x="20" y="40" width="100" height="40" rx="6" ry="6"/><text fill="#1e40af" font-size="12" text-anchor="middle" x="70" y="65"><tspan>客户端 A</tspan></text><rect fill="#dbeafe" stroke="#3b82f6" stroke-width="1.5" x="20" y="160" width="100" height="40" rx="6" ry="6"/><text fill="#1e40af" font-size="12" text-anchor="middle" x="70" y="185"><tspan>客户端 B</tspan></text><rect fill="#dbeafe" stroke="#3b82f6" stroke-width="1.5" x="20" y="280" width="100" height="40" rx="6" ry="6"/><text fill="#1e40af" font-size="12" text-anchor="middle" x="70" y="305"><tspan>客户端 C</tspan></text><rect fill="#f0fdf4" stroke="#22c55e" stroke-width="2" x="200" y="20" width="260" height="320" rx="7.8" ry="8"/><text fill="#15803d" font-size="13" font-weight="700" text-anchor="middle" x="330" y="45"><tspan>WebSocket 服务器</tspan></text><text fill="#15803d" font-size="11" text-anchor="middle" x="330" y="63"><tspan>(Socket.IO)</tspan></text><rect fill="#ffffff" stroke="#22c55e" stroke-width="1" x="220" y="80" width="220" height="40" rx="3.3" ry="4"/><text fill="#15803d" font-size="12" text-anchor="middle" x="330" y="105"><tspan>连接管理器</tspan></text><rect fill="#ffffff" stroke="#22c55e" stroke-width="1" x="220" y="135" width="220" height="40" rx="3.3" ry="4"/><text fill="#15803d" font-size="12" text-anchor="middle" x="330" y="160"><tspan>房间管理器</tspan></text><rect fill="#ffffff" stroke="#22c55e" stroke-width="1" x="220" y="190" width="220" height="40" rx="3.3" ry="4"/><text fill="#15803d" font-size="12" text-anchor="middle" x="330" y="215"><tspan>消息路由器</tspan></text><rect fill="#ffffff" stroke="#22c55e" stroke-width="1" x="220" y="245" width="220" height="40" rx="3.3" ry="4"/><text fill="#15803d" font-size="12" text-anchor="middle" x="330" y="270"><tspan>事件广播器</tspan></text><line stroke="#3b82f6" stroke-width="1.5" stroke-dasharray="5,3" x1="120" y1="60" x2="200" y2="100" marker-end="url(#arrow)"/><text fill="#3b82f6" font-size="10" text-anchor="middle" x="155" y="72"><tspan>WebSocket</tspan></text><line stroke="#3b82f6" stroke-width="1.5" stroke-dasharray="5,3" x1="120" y1="180" x2="200" y2="160" marker-end="url(#arrow)"/><text fill="#3b82f6" font-size="10" text-anchor="middle" x="155" y="162"><tspan>WebSocket</tspan></text><line stroke="#3b82f6" stroke-width="1.5" stroke-dasharray="5,3" x1="120" y1="300" x2="200" y2="220" marker-end="url(#arrow)"/><text fill="#3b82f6" font-size="10" text-anchor="middle" x="155" y="252"><tspan>WebSocket</tspan></text><rect fill="#fef3c7" stroke="#f59e0b" stroke-width="1.5" x="510" y="140" width="90" height="80" rx="5.85" ry="6"/><text fill="#92400e" font-size="13" font-weight="700" text-anchor="middle" x="555" y="175"><tspan>Redis</tspan></text><text fill="#92400e" font-size="11" text-anchor="middle" x="555" y="195"><tspan>(状态存储)</tspan></text><line stroke="#f59e0b" stroke-width="1.5" x1="460" y1="180" x2="510" y2="180" marker-end="url(#arrow)"/><text fill="#92400e" font-size="10" text-anchor="middle" x="485" y="172"><tspan>状态同步</tspan></text></svg>
