<svg xmlns="http://www.w3.org/2000/svg" width="1700" height="980" viewBox="0 0 1700 980">
<defs>
  <marker id="arrow" viewBox="0 0 10 10" refX="9" refY="5" markerWidth="8" markerHeight="8" orient="auto-start-reverse">
    <path d="M 0 0 L 10 5 L 0 10 z" fill="#111111"/>
  </marker>
  <style>
    .label, .note {
      font-family: "Microsoft YaHei", "Noto Sans SC", "PingFang SC", sans-serif;
      fill: #111111;
    }
    .box {
      fill: #ffffff;
      stroke: #111111;
      stroke-width: 2.1;
    }
    .subbox {
      fill: #f7f7f7;
      stroke: #111111;
      stroke-width: 1.6;
    }
    .header {
      fill: #eaeaea;
      stroke: #111111;
      stroke-width: 2.1;
    }
    .boundary {
      fill: #ffffff;
      stroke: #111111;
      stroke-width: 2.2;
    }
    .lane {
      fill: #ffffff;
      stroke: #8a8a8a;
      stroke-width: 1.4;
      stroke-dasharray: 8 6;
    }
    .lane-header {
      fill: #efefef;
      stroke: #111111;
      stroke-width: 1.4;
    }
    .usecase {
      fill: #ffffff;
      stroke: #111111;
      stroke-width: 2.0;
    }
    .decision {
      fill: #ffffff;
      stroke: #111111;
      stroke-width: 2.0;
    }
    .line {
      stroke: #111111;
      stroke-width: 2.0;
      stroke-linecap: round;
      stroke-linejoin: round;
    }
    .actor-line {
      stroke: #111111;
      stroke-width: 2.0;
      fill: none;
      stroke-linecap: round;
    }
  </style>
</defs>
<rect width="100%" height="100%" fill="#ffffff"/>
<rect x="110" y="150" width="1480" height="125" rx="14" class="box"/><rect x="110" y="300" width="1480" height="150" rx="14" class="box"/><rect x="110" y="480" width="1480" height="155" rx="14" class="box"/><rect x="110" y="665" width="1480" height="160" rx="14" class="box"/><text x="160" y="185" text-anchor="start" font-size="22" font-weight="700" class="label">接入层</text><text x="160" y="335" text-anchor="start" font-size="22" font-weight="700" class="label">前端实现层</text><text x="160" y="515" text-anchor="start" font-size="22" font-weight="700" class="label">后端服务层</text><text x="160" y="700" text-anchor="start" font-size="22" font-weight="700" class="label">数据与智能层</text><rect x="260" y="185" width="240" height="60" rx="14" class="subbox"/><text text-anchor="middle" font-size="20" font-weight="500" class="label"><tspan x="380.0" y="222.0">Web 端</tspan></text><rect x="545" y="185" width="240" height="60" rx="14" class="subbox"/><text text-anchor="middle" font-size="20" font-weight="500" class="label"><tspan x="665.0" y="208.5">Electron</tspan><tspan x="665.0" y="235.5"> 桌面端</tspan></text><rect x="830" y="185" width="240" height="60" rx="14" class="subbox"/><text text-anchor="middle" font-size="20" font-weight="500" class="label"><tspan x="950.0" y="222.0">通知 / 托盘能力</tspan></text><rect x="220" y="345" width="250" height="184" rx="14" class="box"/><rect x="220" y="345" width="250" height="54" rx="14" class="header"/><text x="345.0" y="378" text-anchor="middle" font-size="21" font-weight="700" class="label">界面与路由</text><rect x="234" y="413" width="222" height="26" rx="8" class="subbox"/><text text-anchor="middle" font-size="16" font-weight="500" class="label"><tspan x="345.0" y="431.6">Vue 3</tspan></text><rect x="234" y="447" width="222" height="26" rx="8" class="subbox"/><text text-anchor="middle" font-size="16" font-weight="500" class="label"><tspan x="345.0" y="465.6">Vue Router</tspan></text><rect x="234" y="481" width="222" height="26" rx="8" class="subbox"/><text text-anchor="middle" font-size="16" font-weight="500" class="label"><tspan x="345.0" y="499.6">Vite</tspan></text><rect x="520" y="345" width="250" height="184" rx="14" class="box"/><rect x="520" y="345" width="250" height="54" rx="14" class="header"/><text x="645.0" y="378" text-anchor="middle" font-size="21" font-weight="700" class="label">状态与交互</text><rect x="534" y="413" width="222" height="26" rx="8" class="subbox"/><text text-anchor="middle" font-size="16" font-weight="500" class="label"><tspan x="645.0" y="431.6">Pinia</tspan></text><rect x="534" y="447" width="222" height="26" rx="8" class="subbox"/><text text-anchor="middle" font-size="16" font-weight="500" class="label"><tspan x="645.0" y="465.6">Axios</tspan></text><rect x="534" y="481" width="222" height="26" rx="8" class="subbox"/><text text-anchor="middle" font-size="16" font-weight="500" class="label"><tspan x="645.0" y="499.6">Socket.IO Client</tspan></text><rect x="820" y="345" width="250" height="218" rx="14" class="box"/><rect x="820" y="345" width="250" height="54" rx="14" class="header"/><text x="945.0" y="378" text-anchor="middle" font-size="21" font-weight="700" class="label">核心页面</text><rect x="834" y="413" width="222" height="26" rx="8" class="subbox"/><text text-anchor="middle" font-size="16" font-weight="500" class="label"><tspan x="945.0" y="431.6">ChatView</tspan></text><rect x="834" y="447" width="222" height="26" rx="8" class="subbox"/><text text-anchor="middle" font-size="16" font-weight="500" class="label"><tspan x="945.0" y="465.6">Content</tspan></text><rect x="834" y="481" width="222" height="26" rx="8" class="subbox"/><text text-anchor="middle" font-size="16" font-weight="500" class="label"><tspan x="945.0" y="499.6">ChatRoom</tspan></text><rect x="834" y="515" width="222" height="26" rx="8" class="subbox"/><text text-anchor="middle" font-size="16" font-weight="500" class="label"><tspan x="945.0" y="533.6">Favorites</tspan></text><rect x="1120" y="345" width="250" height="184" rx="14" class="box"/><rect x="1120" y="345" width="250" height="54" rx="14" class="header"/><text x="1245.0" y="378" text-anchor="middle" font-size="21" font-weight="700" class="label">桌面适配</text><rect x="1134" y="413" width="222" height="26" rx="8" class="subbox"/><text text-anchor="middle" font-size="16" font-weight="500" class="label"><tspan x="1245.0" y="431.6">Electron Main</tspan></text><rect x="1134" y="447" width="222" height="26" rx="8" class="subbox"/><text text-anchor="middle" font-size="16" font-weight="500" class="label"><tspan x="1245.0" y="465.6">Preload</tspan></text><rect x="1134" y="481" width="222" height="26" rx="8" class="subbox"/><text text-anchor="middle" font-size="16" font-weight="500" class="label"><tspan x="1245.0" y="499.6">系统通知</tspan></text><rect x="180" y="525" width="260" height="184" rx="14" class="box"/><rect x="180" y="525" width="260" height="54" rx="14" class="header"/><text x="310.0" y="558" text-anchor="middle" font-size="21" font-weight="700" class="label">业务接口</text><rect x="194" y="593" width="232" height="26" rx="8" class="subbox"/><text text-anchor="middle" font-size="16" font-weight="500" class="label"><tspan x="310.0" y="611.6">Express API</tspan></text><rect x="194" y="627" width="232" height="26" rx="8" class="subbox"/><text text-anchor="middle" font-size="16" font-weight="500" class="label"><tspan x="310.0" y="645.6">用户 / 聊天 / 房间</tspan></text><rect x="194" y="661" width="232" height="26" rx="8" class="subbox"/><text text-anchor="middle" font-size="16" font-weight="500" class="label"><tspan x="310.0" y="679.6">收藏 / 上传 / 链接预览</tspan></text><rect x="490" y="525" width="260" height="184" rx="14" class="box"/><rect x="490" y="525" width="260" height="54" rx="14" class="header"/><text x="620.0" y="558" text-anchor="middle" font-size="21" font-weight="700" class="label">实时通信</text><rect x="504" y="593" width="232" height="26" rx="8" class="subbox"/><text text-anchor="middle" font-size="16" font-weight="500" class="label"><tspan x="620.0" y="611.6">Socket.IO</tspan></text><rect x="504" y="627" width="232" height="26" rx="8" class="subbox"/><text text-anchor="middle" font-size="16" font-weight="500" class="label"><tspan x="620.0" y="645.6">私聊事件</tspan></text><rect x="504" y="661" width="232" height="26" rx="8" class="subbox"/><text text-anchor="middle" font-size="16" font-weight="500" class="label"><tspan x="620.0" y="679.6">群聊 / 聊天室广播</tspan></text><rect x="800" y="525" width="260" height="184" rx="14" class="box"/><rect x="800" y="525" width="260" height="54" rx="14" class="header"/><text x="930.0" y="558" text-anchor="middle" font-size="21" font-weight="700" class="label">智能服务</text><rect x="814" y="593" width="232" height="26" rx="8" class="subbox"/><text text-anchor="middle" font-size="16" font-weight="500" class="label"><tspan x="930.0" y="611.6">AIController</tspan></text><rect x="814" y="627" width="232" height="26" rx="8" class="subbox"/><text text-anchor="middle" font-size="16" font-weight="500" class="label"><tspan x="930.0" y="635.1">ChatRoomAIContro</tspan><tspan x="930.0" y="656.1">ller</tspan></text><rect x="814" y="661" width="232" height="26" rx="8" class="subbox"/><text text-anchor="middle" font-size="16" font-weight="500" class="label"><tspan x="930.0" y="679.6">AgentController</tspan></text><rect x="1110" y="525" width="260" height="184" rx="14" class="box"/><rect x="1110" y="525" width="260" height="54" rx="14" class="header"/><text x="1240.0" y="558" text-anchor="middle" font-size="21" font-weight="700" class="label">安全能力</text><rect x="1124" y="593" width="232" height="26" rx="8" class="subbox"/><text text-anchor="middle" font-size="16" font-weight="500" class="label"><tspan x="1240.0" y="611.6">JWT</tspan></text><rect x="1124" y="627" width="232" height="26" rx="8" class="subbox"/><text text-anchor="middle" font-size="16" font-weight="500" class="label"><tspan x="1240.0" y="645.6">Passport</tspan></text><rect x="1124" y="661" width="232" height="26" rx="8" class="subbox"/><text text-anchor="middle" font-size="16" font-weight="500" class="label"><tspan x="1240.0" y="679.6">邮件验证码 / OAuth</tspan></text><rect x="180" y="720" width="260" height="184" rx="14" class="box"/><rect x="180" y="720" width="260" height="54" rx="14" class="header"/><text x="310.0" y="753" text-anchor="middle" font-size="21" font-weight="700" class="label">核心存储</text><rect x="194" y="788" width="232" height="26" rx="8" class="subbox"/><text text-anchor="middle" font-size="16" font-weight="500" class="label"><tspan x="310.0" y="806.6">MongoDB</tspan></text><rect x="194" y="822" width="232" height="26" rx="8" class="subbox"/><text text-anchor="middle" font-size="16" font-weight="500" class="label"><tspan x="310.0" y="840.6">Users</tspan></text><rect x="194" y="856" width="232" height="26" rx="8" class="subbox"/><text text-anchor="middle" font-size="16" font-weight="500" class="label"><tspan x="310.0" y="864.1">Messages / Group</tspan><tspan x="310.0" y="885.1">Message</tspan></text><rect x="490" y="720" width="260" height="184" rx="14" class="box"/><rect x="490" y="720" width="260" height="54" rx="14" class="header"/><text x="620.0" y="753" text-anchor="middle" font-size="21" font-weight="700" class="label">知识沉淀</text><rect x="504" y="788" width="232" height="26" rx="8" class="subbox"/><text text-anchor="middle" font-size="16" font-weight="500" class="label"><tspan x="620.0" y="806.6">Favorite</tspan></text><rect x="504" y="822" width="232" height="26" rx="8" class="subbox"/><text text-anchor="middle" font-size="16" font-weight="500" class="label"><tspan x="620.0" y="840.6">Summary</tspan></text><rect x="504" y="856" width="232" height="26" rx="8" class="subbox"/><text text-anchor="middle" font-size="16" font-weight="500" class="label"><tspan x="620.0" y="874.6">AIConversation</tspan></text><rect x="800" y="720" width="260" height="150" rx="14" class="box"/><rect x="800" y="720" width="260" height="54" rx="14" class="header"/><text x="930.0" y="753" text-anchor="middle" font-size="21" font-weight="700" class="label">文件存储</text><rect x="814" y="788" width="232" height="26" rx="8" class="subbox"/><text text-anchor="middle" font-size="16" font-weight="500" class="label"><tspan x="930.0" y="806.6">Uploads 目录</tspan></text><rect x="814" y="822" width="232" height="26" rx="8" class="subbox"/><text text-anchor="middle" font-size="16" font-weight="500" class="label"><tspan x="930.0" y="840.6">fileInfo 快照</tspan></text><rect x="1110" y="720" width="260" height="184" rx="14" class="box"/><rect x="1110" y="720" width="260" height="54" rx="14" class="header"/><text x="1240.0" y="753" text-anchor="middle" font-size="21" font-weight="700" class="label">AI 与检索</text><rect x="1124" y="788" width="232" height="26" rx="8" class="subbox"/><text text-anchor="middle" font-size="16" font-weight="500" class="label"><tspan x="1240.0" y="806.6">DeepSeek API</tspan></text><rect x="1124" y="822" width="232" height="26" rx="8" class="subbox"/><text text-anchor="middle" font-size="16" font-weight="500" class="label"><tspan x="1240.0" y="840.6">VectorSearchTool</tspan></text><rect x="1124" y="856" width="232" height="26" rx="8" class="subbox"/><text text-anchor="middle" font-size="16" font-weight="500" class="label"><tspan x="1240.0" y="864.1">MessageIndexer /</tspan><tspan x="1240.0" y="885.1"> RAG</tspan></text><line x1="380" y1="245" x2="380" y2="300" class="line" marker-end="url(#arrow)"/><line x1="665" y1="245" x2="665" y2="300" class="line" marker-end="url(#arrow)"/><line x1="950" y1="245" x2="950" y2="300" class="line" marker-end="url(#arrow)"/><line x1="310" y1="450" x2="310" y2="480" class="line" marker-end="url(#arrow)"/><line x1="620" y1="450" x2="620" y2="480" class="line" marker-end="url(#arrow)"/><line x1="930" y1="450" x2="930" y2="480" class="line" marker-end="url(#arrow)"/><line x1="1240" y1="450" x2="1240" y2="480" class="line" marker-end="url(#arrow)"/><line x1="310" y1="635" x2="310" y2="665" class="line" marker-end="url(#arrow)"/><line x1="620" y1="635" x2="620" y2="665" class="line" marker-end="url(#arrow)"/><line x1="930" y1="635" x2="930" y2="665" class="line" marker-end="url(#arrow)"/><line x1="1240" y1="635" x2="1240" y2="665" class="line" marker-end="url(#arrow)"/>
</svg>
