<?xml version="1.0" encoding="UTF-8" standalone="yes"?><svg font-family="Microsoft YaHei, SimHei, sans-serif" xmlns="http://www.w3.org/2000/svg" xmlns:xlink="http://www.w3.org/1999/xlink" version="1.2" baseProfile="tiny" x="0" y="0" width="760" height="500" viewBox="0 0 760 500"><defs/><rect fill="#2563eb" stroke="#1d4ed8" stroke-width="1.5" x="280" y="10" width="200" height="40" rx="6" ry="6"/><text fill="#ffffff" font-size="14" font-weight="700" text-anchor="middle" x="380" y="35"><tspan>智能聊天室系统</tspan></text><line stroke="#6b7280" stroke-width="1.5" x1="380" y1="50" x2="380" y2="70"/><line stroke="#6b7280" stroke-width="1.5" x1="100" y1="70" x2="660" y2="70"/><line stroke="#6b7280" stroke-width="1.5" x1="100" y1="70" x2="100" y2="100"/><line stroke="#6b7280" stroke-width="1.5" x1="380" y1="70" x2="380" y2="100"/><line stroke="#6b7280" stroke-width="1.5" x1="660" y1="70" x2="660" y2="100"/><rect fill="#dbeafe" stroke="#3b82f6" stroke-width="1.5" x="20" y="100" width="160" height="170" rx="4" ry="3.4"/><rect fill="#3b82f6" x="20" y="100" width="160" height="30" rx="4" ry="3.9"/><text fill="#ffffff" font-size="13" font-weight="700" text-anchor="middle" x="100" y="120"><tspan>用户管理模块</tspan></text><text fill="#1e40af" font-size="12" text-anchor="middle" x="100" y="152"><tspan>注册登录</tspan></text><text fill="#1e40af" font-size="12" text-anchor="middle" x="100" y="172"><tspan>身份认证</tspan></text><text fill="#1e40af" font-size="12" text-anchor="middle" x="100" y="192"><tspan>信息管理</tspan></text><text fill="#1e40af" font-size="12" text-anchor="middle" x="100" y="212"><tspan>好友管理</tspan></text><text fill="#1e40af" font-size="12" text-anchor="middle" x="100" y="232"><tspan>在线状态</tspan></text><text fill="#1e40af" font-size="12" text-anchor="middle" x="100" y="252"><tspan>权限控制</tspan></text><rect fill="#dbeafe" stroke="#3b82f6" stroke-width="1.5" x="300" y="100" width="160" height="170" rx="4" ry="3.4"/><rect fill="#3b82f6" x="300" y="100" width="160" height="30" rx="4" ry="3.9"/><text fill="#ffffff" font-size="13" font-weight="700" text-anchor="middle" x="380" y="120"><tspan>即时通讯模块</tspan></text><text fill="#1e40af" font-size="12" text-anchor="middle" x="380" y="152"><tspan>消息传递</tspan></text><text fill="#1e40af" font-size="12" text-anchor="middle" x="380" y="172"><tspan>群组聊天</tspan></text><text fill="#1e40af" font-size="12" text-anchor="middle" x="380" y="192"><tspan>在线状态</tspan></text><text fill="#1e40af" font-size="12" text-anchor="middle" x="380" y="212"><tspan>消息同步</tspan></text><text fill="#1e40af" font-size="12" text-anchor="middle" x="380" y="232"><tspan>已读回执</tspan></text><text fill="#1e40af" font-size="12" text-anchor="middle" x="380" y="252"><tspan>消息引用</tspan></text><rect fill="#fce7f3" stroke="#ec4899" stroke-width="1.5" x="580" y="100" width="160" height="170" rx="4" ry="3.4"/><rect fill="#ec4899" x="580" y="100" width="160" height="30" rx="4" ry="3.9"/><text fill="#ffffff" font-size="13" font-weight="700" text-anchor="middle" x="660" y="120"><tspan>AI助手模块</tspan></text><text fill="#9d174d" font-size="12" text-anchor="middle" x="660" y="152"><tspan>技术答疑</tspan></text><text fill="#9d174d" font-size="12" text-anchor="middle" x="660" y="172"><tspan>聊天总结</tspan></text><text fill="#9d174d" font-size="12" text-anchor="middle" x="660" y="192"><tspan>RAG检索</tspan></text><text fill="#9d174d" font-size="12" text-anchor="middle" x="660" y="212"><tspan>流式输出</tspan></text><text fill="#9d174d" font-size="12" text-anchor="middle" x="660" y="232"><tspan>编程辅助</tspan></text><text fill="#9d174d" font-size="12" text-anchor="middle" x="660" y="252"><tspan>划词解释</tspan></text><line stroke="#6b7280" stroke-width="1.5" x1="100" y1="270" x2="100" y2="310"/><line stroke="#6b7280" stroke-width="1.5" x1="380" y1="270" x2="380" y2="310"/><line stroke="#6b7280" stroke-width="1.5" x1="660" y1="270" x2="660" y2="310"/><line stroke="#6b7280" stroke-width="1.5" x1="100" y1="310" x2="660" y2="310"/><line stroke="#6b7280" stroke-width="1.5" x1="240" y1="310" x2="240" y2="330"/><line stroke="#6b7280" stroke-width="1.5" x1="520" y1="310" x2="520" y2="330"/><rect fill="#f0fdf4" stroke="#22c55e" stroke-width="1.5" x="130" y="330" width="220" height="150" rx="3.3" ry="3.75"/><rect fill="#22c55e" x="130" y="330" width="220" height="30" rx="3.3" ry="3.9"/><text fill="#ffffff" font-size="13" font-weight="700" text-anchor="middle" x="240" y="350"><tspan>聊天记录管理模块</tspan></text><text fill="#15803d" font-size="12" text-anchor="middle" x="240" y="382"><tspan>消息存储</tspan></text><text fill="#15803d" font-size="12" text-anchor="middle" x="240" y="402"><tspan>历史查询</tspan></text><text fill="#15803d" font-size="12" text-anchor="middle" x="240" y="422"><tspan>消息搜索</tspan></text><text fill="#15803d" font-size="12" text-anchor="middle" x="240" y="442"><tspan>收藏管理</tspan></text><text fill="#15803d" font-size="12" text-anchor="middle" x="240" y="462"><tspan>分页加载</tspan></text><rect fill="#fef3c7" stroke="#f59e0b" stroke-width="1.5" x="410" y="330" width="220" height="150" rx="3.3" ry="3.75"/><rect fill="#f59e0b" x="410" y="330" width="220" height="30" rx="3.3" ry="3.9"/><text fill="#ffffff" font-size="13" font-weight="700" text-anchor="middle" x="520" y="350"><tspan>文件管理模块</tspan></text><text fill="#92400e" font-size="12" text-anchor="middle" x="520" y="382"><tspan>文件上传</tspan></text><text fill="#92400e" font-size="12" text-anchor="middle" x="520" y="402"><tspan>文件存储</tspan></text><text fill="#92400e" font-size="12" text-anchor="middle" x="520" y="422"><tspan>访问控制</tspan></text><text fill="#92400e" font-size="12" text-anchor="middle" x="520" y="442"><tspan>预览服务</tspan></text><text fill="#92400e" font-size="12" text-anchor="middle" x="520" y="462"><tspan>格式验证</tspan></text></svg>
