<?xml version="1.0" encoding="UTF-8" standalone="yes"?><svg font-family="Microsoft YaHei, SimHei, sans-serif" xmlns="http://www.w3.org/2000/svg" xmlns:xlink="http://www.w3.org/1999/xlink" version="1.2" baseProfile="tiny" x="0" y="0" width="620" height="220" viewBox="0 0 620 220"><defs/><rect fill="#2563eb" stroke="#1d4ed8" stroke-width="1.5" x="10" y="10" width="600" height="40" rx="6" ry="6"/><text fill="#ffffff" font-size="16" font-weight="700" text-anchor="middle" x="310" y="35"><tspan>智能聊天室系统</tspan></text><rect fill="#dbeafe" stroke="#3b82f6" stroke-width="1.5" x="10" y="60" width="145" height="80" rx="3.625" ry="4"/><text fill="#1e40af" font-size="13" font-weight="700" text-anchor="middle" x="82" y="95"><tspan>用户管理</tspan></text><text fill="#1e40af" font-size="13" font-weight="700" text-anchor="middle" x="82" y="115"><tspan>模块</tspan></text><rect fill="#dbeafe" stroke="#3b82f6" stroke-width="1.5" x="165" y="60" width="145" height="80" rx="3.625" ry="4"/><text fill="#1e40af" font-size="13" font-weight="700" text-anchor="middle" x="237" y="95"><tspan>即时通讯</tspan></text><text fill="#1e40af" font-size="13" font-weight="700" text-anchor="middle" x="237" y="115"><tspan>模块</tspan></text><rect fill="#dbeafe" stroke="#3b82f6" stroke-width="1.5" x="320" y="60" width="145" height="80" rx="3.625" ry="4"/><text fill="#1e40af" font-size="13" font-weight="700" text-anchor="middle" x="392" y="95"><tspan>智能问答</tspan></text><text fill="#1e40af" font-size="13" font-weight="700" text-anchor="middle" x="392" y="115"><tspan>模块</tspan></text><rect fill="#dbeafe" stroke="#3b82f6" stroke-width="1.5" x="475" y="60" width="135" height="80" rx="3.375" ry="4"/><text fill="#1e40af" font-size="13" font-weight="700" text-anchor="middle" x="542" y="95"><tspan>AI助手</tspan></text><text fill="#1e40af" font-size="13" font-weight="700" text-anchor="middle" x="542" y="115"><tspan>模块</tspan></text><rect fill="#f0fdf4" stroke="#22c55e" stroke-width="1.5" x="10" y="150" width="600" height="55" rx="3" ry="3.85"/><text fill="#15803d" font-size="13" font-weight="700" text-anchor="middle" x="310" y="172"><tspan>数据存储模块</tspan></text><text fill="#15803d" font-size="12" text-anchor="middle" x="310" y="192"><tspan>(MySQL + MongoDB + Redis)</tspan></text></svg>
