<svg xmlns="http://www.w3.org/2000/svg" width="1500" height="920" viewBox="0 0 1500 920">
<defs>
  <marker id="arrow" viewBox="0 0 10 10" refX="9" refY="5" markerWidth="8" markerHeight="8" orient="auto-start-reverse">
    <path d="M 0 0 L 10 5 L 0 10 z" fill="#111111"/>
  </marker>
  <style>
    .label, .note {
      font-family: "Microsoft YaHei", "Noto Sans SC", "PingFang SC", sans-serif;
      fill: #111111;
    }
    .box {
      fill: #ffffff;
      stroke: #111111;
      stroke-width: 2.1;
    }
    .subbox {
      fill: #f7f7f7;
      stroke: #111111;
      stroke-width: 1.6;
    }
    .header {
      fill: #eaeaea;
      stroke: #111111;
      stroke-width: 2.1;
    }
    .boundary {
      fill: #ffffff;
      stroke: #111111;
      stroke-width: 2.2;
    }
    .lane {
      fill: #ffffff;
      stroke: #8a8a8a;
      stroke-width: 1.4;
      stroke-dasharray: 8 6;
    }
    .lane-header {
      fill: #efefef;
      stroke: #111111;
      stroke-width: 1.4;
    }
    .usecase {
      fill: #ffffff;
      stroke: #111111;
      stroke-width: 2.0;
    }
    .decision {
      fill: #ffffff;
      stroke: #111111;
      stroke-width: 2.0;
    }
    .line {
      stroke: #111111;
      stroke-width: 2.0;
      stroke-linecap: round;
      stroke-linejoin: round;
    }
    .actor-line {
      stroke: #111111;
      stroke-width: 2.0;
      fill: none;
      stroke-linecap: round;
    }
  </style>
</defs>
<rect width="100%" height="100%" fill="#ffffff"/>
<circle cx="110" cy="300" r="20" class="actor-line"/><line x1="110" y1="320" x2="110" y2="382" class="actor-line"/><line x1="82" y1="340" x2="138" y2="340" class="actor-line"/><line x1="110" y1="382" x2="86" y2="418" class="actor-line"/><line x1="110" y1="382" x2="134" y2="418" class="actor-line"/><text text-anchor="middle" font-size="21" font-weight="700" class="label"><tspan x="110" y="462.35">技术交流用户</tspan></text><circle cx="1360" cy="300" r="20" class="actor-line"/><line x1="1360" y1="320" x2="1360" y2="382" class="actor-line"/><line x1="1332" y1="340" x2="1388" y2="340" class="actor-line"/><line x1="1360" y1="382" x2="1336" y2="418" class="actor-line"/><line x1="1360" y1="382" x2="1384" y2="418" class="actor-line"/><text text-anchor="middle" font-size="21" font-weight="700" class="label"><tspan x="1360" y="462.35">AI 服务</tspan></text><rect x="280" y="70" width="980" height="780" rx="18" class="boundary"/><text x="298" y="100" text-anchor="start" font-size="22" font-weight="700" class="label">智能聊天室系统</text><ellipse cx="540" cy="180" rx="150" ry="46" class="usecase"/><text text-anchor="middle" font-size="19" font-weight="500" class="label"><tspan x="540" y="186.65">发起技术求助</tspan></text><ellipse cx="920" cy="180" rx="150" ry="46" class="usecase"/><text text-anchor="middle" font-size="19" font-weight="500" class="label"><tspan x="920" y="174.15">发送代码 / 日</tspan><tspan x="920" y="199.15">志 / 文件</tspan></text><ellipse cx="540" cy="340" rx="150" ry="46" class="usecase"/><text text-anchor="middle" font-size="19" font-weight="500" class="label"><tspan x="540" y="346.65">创建专题聊天室</tspan></text><ellipse cx="920" cy="340" rx="150" ry="46" class="usecase"/><text text-anchor="middle" font-size="19" font-weight="500" class="label"><tspan x="920" y="334.15">标记问题 / 最</tspan><tspan x="920" y="359.15">佳答案</tspan></text><ellipse cx="540" cy="510" rx="150" ry="46" class="usecase"/><text text-anchor="middle" font-size="19" font-weight="500" class="label"><tspan x="540" y="516.65">检索历史讨论</tspan></text><ellipse cx="920" cy="510" rx="150" ry="46" class="usecase"/><text text-anchor="middle" font-size="19" font-weight="500" class="label"><tspan x="920" y="516.65">请求 AI 辅助</tspan></text><ellipse cx="540" cy="680" rx="150" ry="46" class="usecase"/><text text-anchor="middle" font-size="19" font-weight="500" class="label"><tspan x="540" y="686.65">生成讨论总结</tspan></text><ellipse cx="920" cy="680" rx="150" ry="46" class="usecase"/><text text-anchor="middle" font-size="19" font-weight="500" class="label"><tspan x="920" y="686.65">收藏关键结论</tspan></text><line x1="140" y1="342" x2="390" y2="180" class="line"/><line x1="140" y1="342" x2="390" y2="340" class="line"/><line x1="140" y1="342" x2="390" y2="510" class="line"/><line x1="140" y1="342" x2="390" y2="680" class="line"/><line x1="140" y1="342" x2="770" y2="680" class="line"/><line x1="140" y1="342" x2="770" y2="340" class="line"/><line x1="1210" y1="510" x2="1330" y2="510" class="line"/><line x1="1210" y1="680" x2="1330" y2="332" class="line"/><polyline points="690,180 770,180" fill="none" class="line" stroke-dasharray="10 7" marker-end="url(#arrow)"/><rect x="712" y="146" width="116" height="26" rx="8" fill="#ffffff"/><text x="770" y="164" text-anchor="middle" font-size="15" font-weight="700" class="label">&lt;&lt;include&gt;&gt;</text><polyline points="540,556 540,634" fill="none" class="line" stroke-dasharray="10 7" marker-end="url(#arrow)"/><rect x="482" y="582" width="116" height="26" rx="8" fill="#ffffff"/><text x="540" y="600" text-anchor="middle" font-size="15" font-weight="700" class="label">&lt;&lt;extend&gt;&gt;</text><polyline points="920,556 920,634" fill="none" class="line" stroke-dasharray="10 7" marker-end="url(#arrow)"/><rect x="862" y="582" width="116" height="26" rx="8" fill="#ffffff"/><text x="920" y="600" text-anchor="middle" font-size="15" font-weight="700" class="label">&lt;&lt;extend&gt;&gt;</text>
</svg>
