<?xml version="1.0" encoding="UTF-8" standalone="yes"?><svg font-family="Microsoft YaHei, SimHei, sans-serif" xmlns="http://www.w3.org/2000/svg" xmlns:xlink="http://www.w3.org/1999/xlink" version="1.2" baseProfile="tiny" x="0" y="0" width="520" height="520" viewBox="0 0 520 520"><defs/><defs><marker id="arrow" viewBox="0 0 8 8" refX="6" refY="3" markerWidth="8" markerHeight="8" markerUnits="strokeWidth" orient="auto"><path fill="#6b7280" d="M 0 0 L 0 6 L 8 3 L 0 0 Z"/></marker></defs><rect fill="#dbeafe" stroke="#3b82f6" stroke-width="1.5" x="180" y="10" width="160" height="36" rx="17.6" ry="18"/><text fill="#1e40af" font-size="12" text-anchor="middle" x="260" y="33"><tspan>用户提问</tspan></text><line stroke="#6b7280" stroke-width="1.5" x1="260" y1="46" x2="260" y2="66" marker-end="url(#arrow)"/><rect fill="#f0fdf4" stroke="#22c55e" stroke-width="1.5" x="180" y="66" width="160" height="36" rx="5.6" ry="5.94"/><text fill="#15803d" font-size="12" text-anchor="middle" x="260" y="89"><tspan>后端服务接收</tspan></text><line stroke="#6b7280" stroke-width="1.5" x1="260" y1="102" x2="260" y2="122" marker-end="url(#arrow)"/><rect fill="#fce7f3" stroke="#ec4899" stroke-width="1.5" x="180" y="122" width="160" height="36" rx="5.6" ry="5.94"/><text fill="#9d174d" font-size="12" text-anchor="middle" x="260" y="145"><tspan>AI服务模块</tspan></text><line stroke="#6b7280" stroke-width="1.5" x1="260" y1="158" x2="260" y2="178" marker-end="url(#arrow)"/><rect fill="#fce7f3" stroke="#ec4899" stroke-width="1.5" x="180" y="178" width="160" height="36" rx="5.6" ry="5.94"/><text fill="#9d174d" font-size="12" text-anchor="middle" x="260" y="201"><tspan>问题分析</tspan></text><line stroke="#6b7280" stroke-width="1.5" x1="260" y1="214" x2="260" y2="234"/><line stroke="#6b7280" stroke-width="1.5" x1="100" y1="234" x2="420" y2="234"/><line stroke="#6b7280" stroke-width="1.5" x1="100" y1="234" x2="100" y2="254" marker-end="url(#arrow)"/><line stroke="#6b7280" stroke-width="1.5" x1="420" y1="234" x2="420" y2="254" marker-end="url(#arrow)"/><rect fill="#fef3c7" stroke="#f59e0b" stroke-width="1.5" x="30" y="254" width="140" height="36" rx="5.6" ry="5.94"/><text fill="#92400e" font-size="12" text-anchor="middle" x="100" y="277"><tspan>RAG知识检索</tspan></text><rect fill="#fef3c7" stroke="#f59e0b" stroke-width="1.5" x="350" y="254" width="140" height="36" rx="5.6" ry="5.94"/><text fill="#92400e" font-size="12" text-anchor="middle" x="420" y="277"><tspan>提示词构建</tspan></text><rect fill="#fef3c7" stroke="#f59e0b" stroke-width="1" x="30" y="310" width="140" height="36" rx="5.6" ry="5.94"/><text fill="#92400e" font-size="11" text-anchor="middle" x="100" y="333"><tspan>向量数据库检索</tspan></text><line stroke="#6b7280" stroke-width="1.5" x1="100" y1="290" x2="100" y2="310" marker-end="url(#arrow)"/><rect fill="#fef3c7" stroke="#f59e0b" stroke-width="1" x="350" y="310" width="140" height="36" rx="5.6" ry="5.94"/><text fill="#92400e" font-size="11" text-anchor="middle" x="420" y="333"><tspan>历史上下文</tspan></text><line stroke="#6b7280" stroke-width="1.5" x1="420" y1="290" x2="420" y2="310" marker-end="url(#arrow)"/><line stroke="#6b7280" stroke-width="1.5" x1="100" y1="346" x2="100" y2="366"/><line stroke="#6b7280" stroke-width="1.5" x1="420" y1="346" x2="420" y2="366"/><line stroke="#6b7280" stroke-width="1.5" x1="100" y1="366" x2="420" y2="366"/><line stroke="#6b7280" stroke-width="1.5" x1="260" y1="366" x2="260" y2="386" marker-end="url(#arrow)"/><rect fill="#fce7f3" stroke="#ec4899" stroke-width="1.5" x="160" y="386" width="200" height="36" rx="6" ry="5.94"/><text fill="#9d174d" font-size="12" text-anchor="middle" x="260" y="409"><tspan>大语言模型调用</tspan></text><line stroke="#6b7280" stroke-width="1.5" x1="260" y1="422" x2="260" y2="442" marker-end="url(#arrow)"/><rect fill="#fce7f3" stroke="#ec4899" stroke-width="1.5" x="160" y="442" width="200" height="36" rx="6" ry="5.94"/><text fill="#9d174d" font-size="12" text-anchor="middle" x="260" y="465"><tspan>答案生成 / 流式输出</tspan></text><line stroke="#6b7280" stroke-width="1.5" x1="260" y1="478" x2="260" y2="498" marker-end="url(#arrow)"/><rect fill="#dbeafe" stroke="#3b82f6" stroke-width="1.5" x="160" y="498" width="200" height="36" rx="18" ry="18"/><text fill="#1e40af" font-size="12" text-anchor="middle" x="260" y="521"><tspan>WebSocket推送给用户</tspan></text><text fill="#6b7280" font-size="12" text-anchor="middle" x="260" y="510"/></svg>
