<?xml version="1.0" encoding="UTF-8" standalone="yes"?><svg font-family="Microsoft YaHei, SimHei, sans-serif" xmlns="http://www.w3.org/2000/svg" xmlns:xlink="http://www.w3.org/1999/xlink" version="1.2" baseProfile="tiny" x="0" y="0" width="720" height="480" viewBox="0 0 720 480"><defs/><rect fill="#2563eb" stroke="#1d4ed8" stroke-width="1.5" x="260" y="10" width="200" height="40" rx="6" ry="6"/><text fill="#ffffff" font-size="14" font-weight="700" text-anchor="middle" x="360" y="35"><tspan>智能聊天室系统</tspan></text><line stroke="#6b7280" stroke-width="1.5" x1="360" y1="50" x2="360" y2="70"/><line stroke="#6b7280" stroke-width="1.5" x1="100" y1="70" x2="620" y2="70"/><line stroke="#6b7280" stroke-width="1.5" x1="100" y1="70" x2="100" y2="100"/><line stroke="#6b7280" stroke-width="1.5" x1="360" y1="70" x2="360" y2="100"/><line stroke="#6b7280" stroke-width="1.5" x1="620" y1="70" x2="620" y2="100"/><rect fill="#dbeafe" stroke="#3b82f6" stroke-width="1.5" x="20" y="100" width="160" height="160" rx="4" ry="4"/><rect fill="#3b82f6" x="20" y="100" width="160" height="30" rx="4" ry="3.9"/><text fill="#ffffff" font-size="13" font-weight="700" text-anchor="middle" x="100" y="120"><tspan>用户管理模块</tspan></text><text fill="#1e40af" font-size="12" text-anchor="middle" x="100" y="152"><tspan>注册登录</tspan></text><text fill="#1e40af" font-size="12" text-anchor="middle" x="100" y="172"><tspan>身份认证</tspan></text><text fill="#1e40af" font-size="12" text-anchor="middle" x="100" y="192"><tspan>信息管理</tspan></text><text fill="#1e40af" font-size="12" text-anchor="middle" x="100" y="212"><tspan>好友管理</tspan></text><text fill="#1e40af" font-size="12" text-anchor="middle" x="100" y="232"><tspan>在线状态</tspan></text><rect fill="#dbeafe" stroke="#3b82f6" stroke-width="1.5" x="280" y="100" width="160" height="160" rx="4" ry="4"/><rect fill="#3b82f6" x="280" y="100" width="160" height="30" rx="4" ry="3.9"/><text fill="#ffffff" font-size="13" font-weight="700" text-anchor="middle" x="360" y="120"><tspan>即时通讯模块</tspan></text><text fill="#1e40af" font-size="12" text-anchor="middle" x="360" y="152"><tspan>消息传递</tspan></text><text fill="#1e40af" font-size="12" text-anchor="middle" x="360" y="172"><tspan>群组聊天</tspan></text><text fill="#1e40af" font-size="12" text-anchor="middle" x="360" y="192"><tspan>历史记录</tspan></text><text fill="#1e40af" font-size="12" text-anchor="middle" x="360" y="212"><tspan>在线状态</tspan></text><text fill="#1e40af" font-size="12" text-anchor="middle" x="360" y="232"><tspan>消息同步</tspan></text><rect fill="#dbeafe" stroke="#3b82f6" stroke-width="1.5" x="540" y="100" width="160" height="160" rx="4" ry="4"/><rect fill="#3b82f6" x="540" y="100" width="160" height="30" rx="4" ry="3.9"/><text fill="#ffffff" font-size="13" font-weight="700" text-anchor="middle" x="620" y="120"><tspan>智能问答模块</tspan></text><text fill="#1e40af" font-size="12" text-anchor="middle" x="620" y="152"><tspan>问题标记</tspan></text><text fill="#1e40af" font-size="12" text-anchor="middle" x="620" y="172"><tspan>答案推荐</tspan></text><text fill="#1e40af" font-size="12" text-anchor="middle" x="620" y="192"><tspan>知识沉淀</tspan></text><text fill="#1e40af" font-size="12" text-anchor="middle" x="620" y="212"><tspan>相似检索</tspan></text><text fill="#1e40af" font-size="12" text-anchor="middle" x="620" y="232"><tspan>问题管理</tspan></text><line stroke="#6b7280" stroke-width="1.5" x1="360" y1="260" x2="360" y2="300"/><polygon fill="#6b7280" points="355,295 365,295 360,305"/><rect fill="#fef3c7" stroke="#f59e0b" stroke-width="1.5" x="260" y="305" width="200" height="140" rx="4" ry="3.5"/><rect fill="#f59e0b" x="260" y="305" width="200" height="30" rx="4" ry="3.9"/><text fill="#ffffff" font-size="13" font-weight="700" text-anchor="middle" x="360" y="325"><tspan>AI助手模块</tspan></text><text fill="#92400e" font-size="12" text-anchor="middle" x="360" y="357"><tspan>技术答疑</tspan></text><text fill="#92400e" font-size="12" text-anchor="middle" x="360" y="377"><tspan>聊天总结</tspan></text><text fill="#92400e" font-size="12" text-anchor="middle" x="360" y="397"><tspan>编程辅助</tspan></text><text fill="#92400e" font-size="12" text-anchor="middle" x="360" y="417"><tspan>RAG检索</tspan></text></svg>
