<?xml version="1.0" encoding="UTF-8" standalone="yes"?><svg font-family="Microsoft YaHei, SimHei, sans-serif" xmlns="http://www.w3.org/2000/svg" xmlns:xlink="http://www.w3.org/1999/xlink" version="1.2" baseProfile="tiny" x="0" y="0" width="760" height="500" viewBox="0 0 760 500"><defs/><rect fill="#2563eb" stroke="#1d4ed8" stroke-width="1.5" x="280" y="10" width="200" height="40" rx="6" ry="6"/><text fill="#ffffff" font-size="14" font-weight="700" text-anchor="middle" x="380" y="35"><tspan>消息推送流程</tspan></text><line stroke="#6b7280" stroke-width="1.5" x1="380" y1="50" x2="380" y2="70"/><line stroke="#6b7280" stroke-width="1.5" x1="100" y1="70" x2="660" y2="70"/><line stroke="#6b7280" stroke-width="1.5" x1="100" y1="70" x2="100" y2="100"/><line stroke="#6b7280" stroke-width="1.5" x1="380" y1="70" x2="380" y2="100"/><line stroke="#6b7280" stroke-width="1.5" x1="660" y1="70" x2="660" y2="100"/><rect fill="#dbeafe" stroke="#3b82f6" stroke-width="1.5" x="20" y="100" width="160" height="50" rx="4" ry="4"/><text fill="#000000" font-size="13" font-weight="700" text-anchor="middle" x="100" y="130"><tspan>用户A</tspan></text><line stroke="#6b7280" stroke-width="1.5" x1="100" y1="150" x2="380" y2="150"/><text fill="#000000" font-size="12" text-anchor="middle" x="240" y="140"><tspan>1. HTTP接口提交</tspan></text><text fill="#000000" font-size="12" text-anchor="middle" x="240" y="160"><tspan>用户A发送消息</tspan></text><rect fill="#dbeafe" stroke="#3b82f6" stroke-width="1.5" x="300" y="150" width="160" height="50" rx="4" ry="4"/><text fill="#000000" font-size="13" font-weight="700" text-anchor="middle" x="380" y="180"><tspan>后端服务</tspan></text><line stroke="#6b7280" stroke-width="1.5" x1="380" y1="200" x2="380" y2="230"/><text fill="#000000" font-size="12" x="420" y="215"><tspan>2. 验证用户身份</tspan></text><line stroke="#6b7280" stroke-width="1.5" x1="380" y1="240" x2="380" y2="270"/><text fill="#000000" font-size="12" x="420" y="255"><tspan>3. 存储到MongoDB</tspan></text><line stroke="#6b7280" stroke-width="1.5" x1="380" y1="280" x2="380" y2="310"/><text fill="#000000" font-size="12" x="420" y="295"><tspan>4. 查询群组成员</tspan></text><line stroke="#6b7280" stroke-width="1.5" x1="380" y1="320" x2="100" y2="320"/><line stroke="#6b7280" stroke-width="1.5" x1="380" y1="320" x2="660" y2="320"/><text fill="#000000" font-size="12" text-anchor="middle" x="240" y="310"><tspan>5. 查找在线成员连接</tspan></text><text fill="#000000" font-size="12" text-anchor="middle" x="520" y="310"><tspan>6. 通过WebSocket推送</tspan></text><rect fill="#dbeafe" stroke="#3b82f6" stroke-width="1.5" x="20" y="330" width="160" height="50" rx="4" ry="4"/><text fill="#000000" font-size="13" font-weight="700" text-anchor="middle" x="100" y="360"><tspan>用户B</tspan></text><rect fill="#dbeafe" stroke="#3b82f6" stroke-width="1.5" x="600" y="330" width="160" height="50" rx="4" ry="4"/><text fill="#000000" font-size="13" font-weight="700" text-anchor="middle" x="680" y="360"><tspan>用户C</tspan></text><line stroke="#6b7280" stroke-width="1.5" x1="100" y1="380" x2="600" y2="380"/><line stroke="#6b7280" stroke-width="1.5" x1="100" y1="380" x2="100" y2="360"/><line stroke="#6b7280" stroke-width="1.5" x1="600" y1="380" x2="600" y2="360"/><text fill="#000000" font-size="12" text-anchor="middle" x="360" y="375"><tspan>7. 推送给在线用户B和C</tspan></text></svg>
