<?xml version="1.0" encoding="UTF-8" standalone="yes"?><svg font-family="Microsoft YaHei, SimHei, sans-serif" xmlns="http://www.w3.org/2000/svg" xmlns:xlink="http://www.w3.org/1999/xlink" version="1.2" baseProfile="tiny" x="0" y="0" width="700" height="420" viewBox="0 0 700 420"><defs/><defs><marker id="arrow" viewBox="0 0 8 8" refX="6" refY="3" markerWidth="8" markerHeight="8" markerUnits="strokeWidth" orient="auto"><path fill="#6b7280" d="M 0 0 L 0 6 L 8 3 L 0 0 Z"/></marker></defs><rect fill="#dbeafe" stroke="#3b82f6" stroke-width="1.5" x="10" y="10" width="680" height="60" rx="3.4" ry="6"/><text fill="#1e40af" font-size="14" font-weight="700" text-anchor="middle" x="350" y="35"><tspan>客户端层</tspan></text><text fill="#1e40af" font-size="12" text-anchor="middle" x="350" y="58"><tspan>(Vue 3 + TypeScript)</tspan></text><line stroke="#6b7280" stroke-width="1.5" x1="200" y1="70" x2="200" y2="100" marker-end="url(#arrow)"/><text fill="#6b7280" font-size="11" text-anchor="middle" x="155" y="88"><tspan>HTTP/HTTPS</tspan></text><line stroke="#6b7280" stroke-width="1.5" x1="500" y1="70" x2="500" y2="100" marker-end="url(#arrow)"/><text fill="#6b7280" font-size="11" text-anchor="middle" x="545" y="88"><tspan>WebSocket</tspan></text><rect fill="#f0fdf4" stroke="#22c55e" stroke-width="1.5" x="10" y="100" width="680" height="110" rx="3.4" ry="5.5"/><text fill="#15803d" font-size="14" font-weight="700" text-anchor="middle" x="350" y="122"><tspan>应用服务层</tspan></text><text fill="#15803d" font-size="12" text-anchor="middle" x="350" y="140"><tspan>(Express + Socket.IO)</tspan></text><rect fill="#ffffff" stroke="#22c55e" stroke-width="1" x="22" y="148" width="118" height="50" rx="3.54" ry="4"/><text fill="#15803d" font-size="12" text-anchor="middle" x="81" y="178"><tspan>用户管理</tspan></text><rect fill="#ffffff" stroke="#22c55e" stroke-width="1" x="148" y="148" width="118" height="50" rx="3.54" ry="4"/><text fill="#15803d" font-size="12" text-anchor="middle" x="207" y="178"><tspan>即时通讯</tspan></text><rect fill="#ffffff" stroke="#22c55e" stroke-width="1" x="274" y="148" width="118" height="50" rx="3.54" ry="4"/><text fill="#15803d" font-size="12" text-anchor="middle" x="333" y="178"><tspan>聊天记录</tspan></text><rect fill="#ffffff" stroke="#22c55e" stroke-width="1" x="400" y="148" width="118" height="50" rx="3.54" ry="4"/><text fill="#15803d" font-size="12" text-anchor="middle" x="459" y="178"><tspan>AI助手</tspan></text><rect fill="#ffffff" stroke="#22c55e" stroke-width="1" x="526" y="148" width="152" height="50" rx="3.8" ry="4"/><text fill="#15803d" font-size="12" text-anchor="middle" x="602" y="178"><tspan>文件管理</tspan></text><line stroke="#6b7280" stroke-width="1.5" x1="200" y1="210" x2="200" y2="240" marker-end="url(#arrow)"/><line stroke="#6b7280" stroke-width="1.5" x1="500" y1="210" x2="500" y2="240" marker-end="url(#arrow)"/><text fill="#6b7280" font-size="11" text-anchor="middle" x="545" y="228"><tspan>HTTP API</tspan></text><rect fill="#fef3c7" stroke="#f59e0b" stroke-width="1.5" x="10" y="240" width="330" height="110" rx="4.95" ry="5.5"/><text fill="#92400e" font-size="14" font-weight="700" text-anchor="middle" x="175" y="262"><tspan>数据存储层</tspan></text><rect fill="#ffffff" stroke="#f59e0b" stroke-width="1" x="30" y="272" width="130" height="60" rx="3.9" ry="3.9"/><text fill="#92400e" font-size="12" text-anchor="middle" x="95" y="297"><tspan>MongoDB</tspan></text><text fill="#92400e" font-size="11" text-anchor="middle" x="95" y="315"><tspan>(主数据库)</tspan></text><rect fill="#ffffff" stroke="#f59e0b" stroke-width="1" x="180" y="272" width="130" height="60" rx="3.9" ry="3.9"/><text fill="#92400e" font-size="12" text-anchor="middle" x="245" y="297"><tspan>Redis</tspan></text><text fill="#92400e" font-size="11" text-anchor="middle" x="245" y="315"><tspan>(缓存)</tspan></text><rect fill="#fce7f3" stroke="#ec4899" stroke-width="1.5" x="360" y="240" width="330" height="110" rx="4.95" ry="5.5"/><text fill="#9d174d" font-size="14" font-weight="700" text-anchor="middle" x="525" y="262"><tspan>AI服务层</tspan></text><rect fill="#ffffff" stroke="#ec4899" stroke-width="1" x="380" y="272" width="130" height="60" rx="3.9" ry="3.9"/><text fill="#9d174d" font-size="12" text-anchor="middle" x="445" y="297"><tspan>大语言模型</tspan></text><text fill="#9d174d" font-size="11" text-anchor="middle" x="445" y="315"><tspan>LLM API</tspan></text><rect fill="#ffffff" stroke="#ec4899" stroke-width="1" x="530" y="272" width="140" height="60" rx="3.5" ry="3.9"/><text fill="#9d174d" font-size="12" text-anchor="middle" x="600" y="297"><tspan>RAG检索增强</tspan></text><text fill="#9d174d" font-size="11" text-anchor="middle" x="600" y="315"><tspan>向量数据库</tspan></text></svg>
