<svg xmlns="http://www.w3.org/2000/svg" width="1500" height="920" viewBox="0 0 1500 920">
<defs>
  <marker id="arrow" viewBox="0 0 10 10" refX="9" refY="5" markerWidth="8" markerHeight="8" orient="auto-start-reverse">
    <path d="M 0 0 L 10 5 L 0 10 z" fill="#111111"/>
  </marker>
  <style>
    .label, .note {
      font-family: "Microsoft YaHei", "Noto Sans SC", "PingFang SC", sans-serif;
      fill: #111111;
    }
    .box {
      fill: #ffffff;
      stroke: #111111;
      stroke-width: 2.1;
    }
    .subbox {
      fill: #f7f7f7;
      stroke: #111111;
      stroke-width: 1.6;
    }
    .header {
      fill: #eaeaea;
      stroke: #111111;
      stroke-width: 2.1;
    }
    .boundary {
      fill: #ffffff;
      stroke: #111111;
      stroke-width: 2.2;
    }
    .lane {
      fill: #ffffff;
      stroke: #8a8a8a;
      stroke-width: 1.4;
      stroke-dasharray: 8 6;
    }
    .lane-header {
      fill: #efefef;
      stroke: #111111;
      stroke-width: 1.4;
    }
    .usecase {
      fill: #ffffff;
      stroke: #111111;
      stroke-width: 2.0;
    }
    .decision {
      fill: #ffffff;
      stroke: #111111;
      stroke-width: 2.0;
    }
    .line {
      stroke: #111111;
      stroke-width: 2.0;
      stroke-linecap: round;
      stroke-linejoin: round;
    }
    .actor-line {
      stroke: #111111;
      stroke-width: 2.0;
      fill: none;
      stroke-linecap: round;
    }
  </style>
</defs>
<rect width="100%" height="100%" fill="#ffffff"/>
<circle cx="110" cy="300" r="20" class="actor-line"/><line x1="110" y1="320" x2="110" y2="382" class="actor-line"/><line x1="82" y1="340" x2="138" y2="340" class="actor-line"/><line x1="110" y1="382" x2="86" y2="418" class="actor-line"/><line x1="110" y1="382" x2="134" y2="418" class="actor-line"/><text text-anchor="middle" font-size="21" font-weight="700" class="label"><tspan x="110" y="462.35">个人开发者</tspan></text><circle cx="1360" cy="280" r="20" class="actor-line"/><line x1="1360" y1="300" x2="1360" y2="362" class="actor-line"/><line x1="1332" y1="320" x2="1388" y2="320" class="actor-line"/><line x1="1360" y1="362" x2="1336" y2="398" class="actor-line"/><line x1="1360" y1="362" x2="1384" y2="398" class="actor-line"/><text text-anchor="middle" font-size="21" font-weight="700" class="label"><tspan x="1360" y="442.35">AI 服务</tspan></text><rect x="280" y="70" width="980" height="780" rx="18" class="boundary"/><text x="298" y="100" text-anchor="start" font-size="22" font-weight="700" class="label">智能聊天室系统</text><ellipse cx="540" cy="180" rx="150" ry="46" class="usecase"/><text text-anchor="middle" font-size="19" font-weight="500" class="label"><tspan x="540" y="186.65">咨询代码问题</tspan></text><ellipse cx="920" cy="180" rx="150" ry="46" class="usecase"/><text text-anchor="middle" font-size="19" font-weight="500" class="label"><tspan x="920" y="174.15">开启 RAG 问</tspan><tspan x="920" y="199.15">答</tspan></text><ellipse cx="540" cy="360" rx="150" ry="46" class="usecase"/><text text-anchor="middle" font-size="19" font-weight="500" class="label"><tspan x="540" y="366.65">解释选中文本</tspan></text><ellipse cx="920" cy="360" rx="150" ry="46" class="usecase"/><text text-anchor="middle" font-size="19" font-weight="500" class="label"><tspan x="920" y="366.65">请求代码分析</tspan></text><ellipse cx="540" cy="560" rx="150" ry="46" class="usecase"/><text text-anchor="middle" font-size="19" font-weight="500" class="label"><tspan x="540" y="566.65">收藏关键消息</tspan></text><ellipse cx="920" cy="560" rx="150" ry="46" class="usecase"/><text text-anchor="middle" font-size="19" font-weight="500" class="label"><tspan x="920" y="566.65">添加标签与备注</tspan></text><ellipse cx="730" cy="720" rx="150" ry="46" class="usecase"/><text text-anchor="middle" font-size="19" font-weight="500" class="label"><tspan x="730" y="726.65">检索收藏记录</tspan></text><line x1="140" y1="342" x2="390" y2="180" class="line"/><line x1="140" y1="342" x2="390" y2="360" class="line"/><line x1="140" y1="342" x2="390" y2="560" class="line"/><line x1="140" y1="342" x2="580" y2="720" class="line"/><line x1="1210" y1="180" x2="1330" y2="300" class="line"/><line x1="1210" y1="360" x2="1330" y2="300" class="line"/><line x1="690" y1="360" x2="1330" y2="300" class="line"/><polyline points="690,180 770,180" fill="none" class="line" stroke-dasharray="10 7" marker-end="url(#arrow)"/><rect x="712" y="146" width="116" height="26" rx="8" fill="#ffffff"/><text x="770" y="164" text-anchor="middle" font-size="15" font-weight="700" class="label">&lt;&lt;include&gt;&gt;</text><polyline points="690,560 770,560" fill="none" class="line" stroke-dasharray="10 7" marker-end="url(#arrow)"/><rect x="712" y="526" width="116" height="26" rx="8" fill="#ffffff"/><text x="770" y="544" text-anchor="middle" font-size="15" font-weight="700" class="label">&lt;&lt;include&gt;&gt;</text><polyline points="920,226 920,314" fill="none" class="line" stroke-dasharray="10 7" marker-end="url(#arrow)"/><rect x="862" y="254" width="116" height="26" rx="8" fill="#ffffff"/><text x="920" y="272" text-anchor="middle" font-size="15" font-weight="700" class="label">&lt;&lt;extend&gt;&gt;</text>
</svg>
