<?xml version="1.0" encoding="UTF-8" standalone="yes"?><svg font-family="Microsoft YaHei, SimHei, sans-serif" xmlns="http://www.w3.org/2000/svg" xmlns:xlink="http://www.w3.org/1999/xlink" version="1.2" baseProfile="tiny" x="0" y="0" width="620" height="360" viewBox="0 0 620 360"><defs/><defs><marker id="arrow" viewBox="0 0 8 8" refX="6" refY="3" markerWidth="8" markerHeight="8" markerUnits="strokeWidth" orient="auto"><path fill="#6b7280" d="M 0 0 L 0 6 L 8 3 L 0 0 Z"/></marker></defs><rect fill="#dbeafe" stroke="#3b82f6" stroke-width="1.5" x="20" y="40" width="100" height="40" rx="20" ry="20"/><text fill="#1e40af" font-size="12" text-anchor="middle" x="70" y="65"><tspan>用户操作</tspan></text><line stroke="#6b7280" stroke-width="1.5" x1="120" y1="60" x2="155" y2="60" marker-end="url(#arrow)"/><rect fill="#dbeafe" stroke="#3b82f6" stroke-width="1.5" x="155" y="40" width="110" height="40" rx="5.5" ry="6"/><text fill="#1e40af" font-size="12" text-anchor="middle" x="210" y="58"><tspan>前端应用</tspan></text><text fill="#1e40af" font-size="11" text-anchor="middle" x="210" y="73"><tspan>(Vue 3)</tspan></text><line stroke="#6b7280" stroke-width="1.5" x1="265" y1="60" x2="300" y2="60" marker-end="url(#arrow)"/><text fill="#6b7280" font-size="10" text-anchor="middle" x="282" y="52"><tspan>HTTP请求</tspan></text><rect fill="#f0fdf4" stroke="#22c55e" stroke-width="1.5" x="300" y="40" width="110" height="40" rx="5.5" ry="6"/><text fill="#15803d" font-size="12" text-anchor="middle" x="355" y="58"><tspan>后端服务</tspan></text><text fill="#15803d" font-size="11" text-anchor="middle" x="355" y="73"><tspan>(Express)</tspan></text><line stroke="#6b7280" stroke-width="1.5" x1="355" y1="80" x2="355" y2="110" marker-end="url(#arrow)"/><rect fill="#fef3c7" stroke="#f59e0b" stroke-width="1.5" x="270" y="110" width="170" height="36" rx="3.4" ry="3.96"/><text fill="#92400e" font-size="12" text-anchor="middle" x="355" y="133"><tspan>身份验证 / 权限检查</tspan></text><line stroke="#6b7280" stroke-width="1.5" x1="355" y1="146" x2="355" y2="176" marker-end="url(#arrow)"/><rect fill="#fef3c7" stroke="#f59e0b" stroke-width="1.5" x="270" y="176" width="170" height="36" rx="3.4" ry="3.96"/><text fill="#92400e" font-size="12" text-anchor="middle" x="355" y="199"><tspan>业务逻辑处理</tspan></text><line stroke="#6b7280" stroke-width="1.5" x1="355" y1="212" x2="355" y2="242" marker-end="url(#arrow)"/><rect fill="#fef3c7" stroke="#f59e0b" stroke-width="1.5" x="270" y="242" width="170" height="36" rx="3.4" ry="3.96"/><text fill="#92400e" font-size="12" text-anchor="middle" x="355" y="265"><tspan>数据库操作</tspan></text><line stroke="#6b7280" stroke-width="1.5" x1="355" y1="278" x2="355" y2="308" marker-end="url(#arrow)"/><rect fill="#f0fdf4" stroke="#22c55e" stroke-width="1.5" x="270" y="308" width="170" height="36" rx="3.4" ry="3.96"/><text fill="#15803d" font-size="12" text-anchor="middle" x="355" y="331"><tspan>JSON 响应</tspan></text><line stroke="#6b7280" stroke-width="1.5" x1="270" y1="326" x2="210" y2="326" marker-end="url(#arrow)"/><text fill="#6b7280" font-size="10" text-anchor="middle" x="240" y="318"><tspan>返回数据</tspan></text><rect fill="#dbeafe" stroke="#3b82f6" stroke-width="1.5" x="100" y="308" width="110" height="36" rx="3.85" ry="3.96"/><text fill="#1e40af" font-size="12" text-anchor="middle" x="155" y="331"><tspan>界面更新</tspan></text></svg>
