<?xml version="1.0" encoding="UTF-8" standalone="yes"?><svg font-family="Microsoft YaHei, SimHei, sans-serif" xmlns="http://www.w3.org/2000/svg" xmlns:xlink="http://www.w3.org/1999/xlink" version="1.2" baseProfile="tiny" x="0" y="0" width="700" height="520" viewBox="0 0 700 520"><defs/><rect fill="#f8fafc" stroke="#94a3b8" stroke-width="1.5" stroke-dasharray="6,3" x="160" y="10" width="380" height="420" rx="7.6" ry="6.3"/><text fill="#64748b" font-size="13" text-anchor="middle" x="350" y="32"><tspan>智能聊天室系统</tspan></text><ellipse fill="#dbeafe" stroke="#3b82f6" stroke-width="1.5" cx="270" cy="80" rx="60" ry="20"/><text fill="#1e40af" font-size="11" text-anchor="middle" x="270" y="85"><tspan>注册登录</tspan></text><ellipse fill="#dbeafe" stroke="#3b82f6" stroke-width="1.5" cx="270" cy="130" rx="60" ry="20"/><text fill="#1e40af" font-size="11" text-anchor="middle" x="270" y="135"><tspan>发送消息</tspan></text><ellipse fill="#dbeafe" stroke="#3b82f6" stroke-width="1.5" cx="270" cy="180" rx="60" ry="20"/><text fill="#1e40af" font-size="11" text-anchor="middle" x="270" y="185"><tspan>群组讨论</tspan></text><ellipse fill="#dbeafe" stroke="#3b82f6" stroke-width="1.5" cx="270" cy="230" rx="60" ry="20"/><text fill="#1e40af" font-size="11" text-anchor="middle" x="270" y="235"><tspan>查看历史</tspan></text><ellipse fill="#dbeafe" stroke="#3b82f6" stroke-width="1.5" cx="270" cy="280" rx="60" ry="20"/><text fill="#1e40af" font-size="11" text-anchor="middle" x="270" y="285"><tspan>向AI提问</tspan></text><ellipse fill="#dbeafe" stroke="#3b82f6" stroke-width="1.5" cx="270" cy="330" rx="60" ry="20"/><text fill="#1e40af" font-size="11" text-anchor="middle" x="270" y="335"><tspan>收藏消息</tspan></text><ellipse fill="#dcfce7" stroke="#22c55e" stroke-width="1.5" cx="430" cy="130" rx="60" ry="20"/><text fill="#15803d" font-size="11" text-anchor="middle" x="430" y="135"><tspan>成员管理</tspan></text><ellipse fill="#dcfce7" stroke="#22c55e" stroke-width="1.5" cx="430" cy="180" rx="60" ry="20"/><text fill="#15803d" font-size="11" text-anchor="middle" x="430" y="185"><tspan>内容审核</tspan></text><ellipse fill="#dcfce7" stroke="#22c55e" stroke-width="1.5" cx="430" cy="230" rx="60" ry="20"/><text fill="#15803d" font-size="11" text-anchor="middle" x="430" y="235"><tspan>群组设置</tspan></text><ellipse fill="#fef3c7" stroke="#f59e0b" stroke-width="1.5" cx="430" cy="330" rx="60" ry="20"/><text fill="#92400e" font-size="11" text-anchor="middle" x="430" y="335"><tspan>系统监控</tspan></text><ellipse fill="#fef3c7" stroke="#f59e0b" stroke-width="1.5" cx="430" cy="380" rx="60" ry="20"/><text fill="#92400e" font-size="11" text-anchor="middle" x="430" y="385"><tspan>AI配置</tspan></text><circle fill="none" stroke="#3b82f6" stroke-width="2" cx="60" cy="200" r="18"/><line stroke="#3b82f6" stroke-width="2" x1="60" y1="218" x2="60" y2="260"/><line stroke="#3b82f6" stroke-width="2" x1="30" y1="235" x2="90" y2="235"/><line stroke="#3b82f6" stroke-width="2" x1="60" y1="260" x2="35" y2="290"/><line stroke="#3b82f6" stroke-width="2" x1="60" y1="260" x2="85" y2="290"/><text fill="#1e40af" font-size="12" font-weight="700" text-anchor="middle" x="60" y="310"><tspan>普通用户</tspan></text><circle fill="none" stroke="#22c55e" stroke-width="2" cx="350" cy="460" r="18"/><line stroke="#22c55e" stroke-width="2" x1="350" y1="478" x2="350" y2="500"/><text fill="#15803d" font-size="12" font-weight="700" text-anchor="middle" x="350" y="515"><tspan>群管理员</tspan></text><circle fill="none" stroke="#f59e0b" stroke-width="2" cx="640" cy="200" r="18"/><line stroke="#f59e0b" stroke-width="2" x1="640" y1="218" x2="640" y2="260"/><line stroke="#f59e0b" stroke-width="2" x1="610" y1="235" x2="670" y2="235"/><line stroke="#f59e0b" stroke-width="2" x1="640" y1="260" x2="615" y2="290"/><line stroke="#f59e0b" stroke-width="2" x1="640" y1="260" x2="665" y2="290"/><text fill="#92400e" font-size="12" font-weight="700" text-anchor="middle" x="640" y="310"><tspan>系统管理员</tspan></text><line stroke="#3b82f6" stroke-width="1" stroke-dasharray="4,2" x1="78" y1="200" x2="210" y2="130"/><line stroke="#3b82f6" stroke-width="1" stroke-dasharray="4,2" x1="78" y1="200" x2="210" y2="180"/><line stroke="#3b82f6" stroke-width="1" stroke-dasharray="4,2" x1="78" y1="200" x2="210" y2="230"/><line stroke="#3b82f6" stroke-width="1" stroke-dasharray="4,2" x1="78" y1="200" x2="210" y2="280"/><line stroke="#3b82f6" stroke-width="1" stroke-dasharray="4,2" x1="78" y1="200" x2="210" y2="330"/><line stroke="#22c55e" stroke-width="1" stroke-dasharray="4,2" x1="350" y1="460" x2="370" y2="150"/><line stroke="#22c55e" stroke-width="1" stroke-dasharray="4,2" x1="350" y1="460" x2="370" y2="200"/><line stroke="#22c55e" stroke-width="1" stroke-dasharray="4,2" x1="350" y1="460" x2="370" y2="250"/><line stroke="#f59e0b" stroke-width="1" stroke-dasharray="4,2" x1="622" y1="200" x2="490" y2="335"/><line stroke="#f59e0b" stroke-width="1" stroke-dasharray="4,2" x1="622" y1="200" x2="490" y2="385"/></svg>
