<svg xmlns="http://www.w3.org/2000/svg" width="1850" height="1120" viewBox="0 0 1850 1120">
<defs>
  <marker id="arrow" viewBox="0 0 10 10" refX="9" refY="5" markerWidth="8" markerHeight="8" orient="auto-start-reverse">
    <path d="M 0 0 L 10 5 L 0 10 z" fill="#111111"/>
  </marker>
  <style>
    .label, .note {
      font-family: "Microsoft YaHei", "Noto Sans SC", "PingFang SC", sans-serif;
      fill: #111111;
    }
    .box {
      fill: #ffffff;
      stroke: #111111;
      stroke-width: 2.1;
    }
    .subbox {
      fill: #f7f7f7;
      stroke: #111111;
      stroke-width: 1.6;
    }
    .header {
      fill: #eaeaea;
      stroke: #111111;
      stroke-width: 2.1;
    }
    .boundary {
      fill: #ffffff;
      stroke: #111111;
      stroke-width: 2.2;
    }
    .lane {
      fill: #ffffff;
      stroke: #8a8a8a;
      stroke-width: 1.4;
      stroke-dasharray: 8 6;
    }
    .lane-header {
      fill: #efefef;
      stroke: #111111;
      stroke-width: 1.4;
    }
    .usecase {
      fill: #ffffff;
      stroke: #111111;
      stroke-width: 2.0;
    }
    .decision {
      fill: #ffffff;
      stroke: #111111;
      stroke-width: 2.0;
    }
    .line {
      stroke: #111111;
      stroke-width: 2.0;
      stroke-linecap: round;
      stroke-linejoin: round;
    }
    .actor-line {
      stroke: #111111;
      stroke-width: 2.0;
      fill: none;
      stroke-linecap: round;
    }
  </style>
</defs>
<rect width="100%" height="100%" fill="#ffffff"/>
<rect x="60" y="40" width="1730" height="1040" rx="18" class="boundary"/><text x="78" y="70" text-anchor="start" font-size="22" font-weight="700" class="label">前端总体流程（管理端 Vue / 用户端 UniApp）</text><rect x="760" y="90" width="330" height="70" rx="12" class="header"/><text text-anchor="middle" font-size="24" font-weight="700" class="label"><tspan x="925.0" y="133.4">访问系统</tspan></text><polygon points="925,170.0 1045.0,230 925,290.0 805.0,230" class="decision"/><text text-anchor="middle" font-size="19" font-weight="500" class="label"><tspan x="925" y="236.65">角色选择</tspan></text><rect x="110" y="320" width="820" height="620" rx="18" class="boundary"/><text x="128" y="350" text-anchor="start" font-size="22" font-weight="700" class="label">宠物领养用户端</text><rect x="960" y="320" width="780" height="620" rx="18" class="boundary"/><text x="978" y="350" text-anchor="start" font-size="22" font-weight="700" class="label">管理员端</text><rect x="380" y="380" width="210" height="66" rx="14" class="box"/><text text-anchor="middle" font-size="22" font-weight="500" class="label"><tspan x="485.0" y="420.7">登录 / 注册</tspan></text><polygon points="485,450.0 595.0,505 485,560.0 375.0,505" class="decision"/><text text-anchor="middle" font-size="19" font-weight="500" class="label"><tspan x="485" y="511.65">选择功能</tspan></text><rect x="150" y="600" width="180" height="60" rx="14" class="box"/><text text-anchor="middle" font-size="22" font-weight="500" class="label"><tspan x="240.0" y="637.7">浏览宠物列表</tspan></text><rect x="150" y="680" width="180" height="60" rx="14" class="box"/><text text-anchor="middle" font-size="22" font-weight="500" class="label"><tspan x="240.0" y="717.7">查看宠物详情</tspan></text><rect x="150" y="760" width="180" height="60" rx="14" class="box"/><text text-anchor="middle" font-size="22" font-weight="500" class="label"><tspan x="240.0" y="797.7">提交领养申请</tspan></text><rect x="390" y="600" width="190" height="60" rx="14" class="box"/><text text-anchor="middle" font-size="22" font-weight="500" class="label"><tspan x="485.0" y="637.7">上传图片</tspan></text><rect x="390" y="680" width="190" height="60" rx="14" class="box"/><text text-anchor="middle" font-size="22" font-weight="500" class="label"><tspan x="485.0" y="717.7">AI识别自动回填</tspan></text><rect x="390" y="760" width="190" height="60" rx="14" class="box"/><text text-anchor="middle" font-size="22" font-weight="500" class="label"><tspan x="485.0" y="797.7">填写信息并提交</tspan></text><rect x="640" y="620" width="190" height="60" rx="14" class="box"/><text text-anchor="middle" font-size="22" font-weight="500" class="label"><tspan x="735.0" y="657.7">发布社区内容</tspan></text><rect x="640" y="720" width="190" height="60" rx="14" class="box"/><text text-anchor="middle" font-size="22" font-weight="500" class="label"><tspan x="735.0" y="757.7">评论互动</tspan></text><rect x="360" y="860" width="320" height="66" rx="14" class="header"/><text text-anchor="middle" font-size="24" font-weight="500" class="label"><tspan x="520.0" y="885.4">个人中心查看状态</tspan><tspan x="520.0" y="917.4">与反馈回复</tspan></text><rect x="1260" y="380" width="210" height="66" rx="14" class="box"/><text text-anchor="middle" font-size="22" font-weight="500" class="label"><tspan x="1365.0" y="420.7">管理员登录</tspan></text><polygon points="1365,450.0 1495.0,505 1365,560.0 1235.0,505" class="decision"/><text text-anchor="middle" font-size="19" font-weight="500" class="label"><tspan x="1365" y="511.65">选择管理功能</tspan></text><rect x="995" y="600" width="170" height="60" rx="14" class="box"/><text text-anchor="middle" font-size="22" font-weight="500" class="label"><tspan x="1080.0" y="637.7">查看线索列表</tspan></text><rect x="995" y="700" width="170" height="60" rx="14" class="box"/><text text-anchor="middle" font-size="22" font-weight="500" class="label"><tspan x="1080.0" y="737.7">添加进展记录</tspan></text><rect x="1185" y="600" width="175" height="60" rx="14" class="box"/><text text-anchor="middle" font-size="22" font-weight="500" class="label"><tspan x="1272.5" y="637.7">添加 / 编辑宠物</tspan></text><rect x="1185" y="700" width="175" height="60" rx="14" class="box"/><text text-anchor="middle" font-size="22" font-weight="500" class="label"><tspan x="1272.5" y="737.7">发布宠物信息</tspan></text><rect x="1380" y="600" width="170" height="60" rx="14" class="box"/><text text-anchor="middle" font-size="22" font-weight="500" class="label"><tspan x="1465.0" y="637.7">查看申请列表</tspan></text><rect x="1380" y="700" width="170" height="60" rx="14" class="box"/><text text-anchor="middle" font-size="22" font-weight="500" class="label"><tspan x="1465.0" y="737.7">申请审核</tspan></text><rect x="1570" y="635" width="145" height="100" rx="14" class="box"/><text text-anchor="middle" font-size="22" font-weight="500" class="label"><tspan x="1642.5" y="678.2">审核社区内容</tspan><tspan x="1642.5" y="707.2">与评论</tspan></text><rect x="650" y="945" width="560" height="70" rx="14" class="header"/><text text-anchor="middle" font-size="24" font-weight="500" class="label"><tspan x="930.0" y="988.4">与后端交互：发起请求并接收返回结果</tspan></text><line x1="925" y1="160" x2="925" y2="170" class="line" marker-end="url(#arrow)"/><polyline points="805,230 485,230 485.0,380" fill="none" class="line" marker-end="url(#arrow)"/><polyline points="1045,230 1365,230 1365.0,380" fill="none" class="line" marker-end="url(#arrow)"/><line x1="485.0" y1="446" x2="485" y2="450" class="line" marker-end="url(#arrow)"/><polyline points="375,505 240,505 240.0,600" fill="none" class="line" marker-end="url(#arrow)"/><polyline points="485,560 485,600" fill="none" class="line" marker-end="url(#arrow)"/><polyline points="595,505 735,505 735.0,620" fill="none" class="line" marker-end="url(#arrow)"/><line x1="240.0" y1="660" x2="240.0" y2="680" class="line" marker-end="url(#arrow)"/><line x1="240.0" y1="740" x2="240.0" y2="760" class="line" marker-end="url(#arrow)"/><line x1="485.0" y1="660" x2="485.0" y2="680" class="line" marker-end="url(#arrow)"/><line x1="485.0" y1="740" x2="485.0" y2="760" class="line" marker-end="url(#arrow)"/><line x1="735.0" y1="680" x2="735.0" y2="720" class="line" marker-end="url(#arrow)"/><polyline points="240.0,820 240,850 520,850 520.0,860" fill="none" class="line" marker-end="url(#arrow)"/><polyline points="485.0,820 485,850 520.0,860" fill="none" class="line" marker-end="url(#arrow)"/><polyline points="735.0,780 735,850 520,850 520.0,860" fill="none" class="line" marker-end="url(#arrow)"/><line x1="1365.0" y1="446" x2="1365" y2="450" class="line" marker-end="url(#arrow)"/><polyline points="1235,505 1080,505 1080.0,600" fill="none" class="line" marker-end="url(#arrow)"/><polyline points="1325,560 1275,560 1275,600 1272.5,600" fill="none" class="line" marker-end="url(#arrow)"/><polyline points="1405,560 1465,560 1465,600 1465.0,600" fill="none" class="line" marker-end="url(#arrow)"/><polyline points="1495,505 1640,505 1640,635" fill="none" class="line" marker-end="url(#arrow)"/><line x1="1080.0" y1="660" x2="1080.0" y2="700" class="line" marker-end="url(#arrow)"/><line x1="1272.5" y1="660" x2="1272.5" y2="700" class="line" marker-end="url(#arrow)"/><line x1="1465.0" y1="660" x2="1465.0" y2="700" class="line" marker-end="url(#arrow)"/><polyline points="1080.0,760 1080,910 930,910 930,945" fill="none" class="line" marker-end="url(#arrow)"/><polyline points="1272.5,760 1272,910 1030,910 1030,945" fill="none" class="line" marker-end="url(#arrow)"/><polyline points="1465.0,760 1465,910 1110,910 1110,945" fill="none" class="line" marker-end="url(#arrow)"/><polyline points="1642.5,735 1642,910 1110,910 1110,945" fill="none" class="line" marker-end="url(#arrow)"/><polyline points="520.0,926 520,925 770,925 770,945" fill="none" class="line" marker-end="url(#arrow)"/>
</svg>
