<svg xmlns="http://www.w3.org/2000/svg" width="960" height="1100" viewBox="0 0 960 1100" style="background-color:#FFFFFF; font-family: system-ui, -apple-system, sans-serif;">
    <defs>
        <marker id="arrow_blue" viewBox="0 0 10 10" refX="8" refY="5" markerWidth="6" markerHeight="6" orient="auto"><path d="M 0 0 L 10 5 L 0 10 z" fill="#3B82F6" /></marker>
        <marker id="arrow_green" viewBox="0 0 10 10" refX="8" refY="5" markerWidth="6" markerHeight="6" orient="auto"><path d="M 0 0 L 10 5 L 0 10 z" fill="#10B981" /></marker>
        <marker id="arrow_orange" viewBox="0 0 10 10" refX="8" refY="5" markerWidth="6" markerHeight="6" orient="auto"><path d="M 0 0 L 10 5 L 0 10 z" fill="#F59E0B" /></marker>
    </defs>
    
    <!-- Layers -->
    <rect x="40" y="80" width="880" height="110" rx="8" fill="#F8FAFC" stroke="#CBD5E1" stroke-width="2" />
    <rect x="40" y="80" width="160" height="32" rx="8" fill="#CBD5E1" stroke="none" />
    <text x="120" y="96" font-size="15" font-weight="bold" fill="#1F2937" text-anchor="middle" dominant-baseline="middle">第一层：接入层</text>

    <rect x="40" y="210" width="880" height="200" rx="8" fill="#F0FDF4" stroke="#BBF7D0" stroke-width="2" />
    <rect x="40" y="210" width="160" height="32" rx="8" fill="#BBF7D0" stroke="none" />
    <text x="120" y="226" font-size="15" font-weight="bold" fill="#1F2937" text-anchor="middle" dominant-baseline="middle">第二层：前端实现层</text>

    <rect x="40" y="430" width="880" height="260" rx="8" fill="#EFF6FF" stroke="#BFDBFE" stroke-width="2" />
    <rect x="40" y="430" width="160" height="32" rx="8" fill="#BFDBFE" stroke="none" />
    <text x="120" y="446" font-size="15" font-weight="bold" fill="#1F2937" text-anchor="middle" dominant-baseline="middle">第三层：后端服务层</text>

    <rect x="40" y="710" width="880" height="280" rx="8" fill="#FAF5FF" stroke="#E9D5FF" stroke-width="2" />
    <rect x="40" y="710" width="160" height="32" rx="8" fill="#E9D5FF" stroke="none" />
    <text x="120" y="726" font-size="15" font-weight="bold" fill="#1F2937" text-anchor="middle" dominant-baseline="middle">第四层：数据与智能层</text>

    <!-- Layer 1 Content -->
    <rect x="150" y="120" width="200" height="40" rx="6" fill="#FFFFFF" stroke="#64748B" stroke-width="1.5" />
    <text x="250" y="140" font-size="14" font-weight="bold" fill="#1F2937" text-anchor="middle" dominant-baseline="middle">Web端</text>
    <rect x="370" y="120" width="200" height="40" rx="6" fill="#FFFFFF" stroke="#64748B" stroke-width="1.5" />
    <text x="470" y="140" font-size="14" font-weight="bold" fill="#1F2937" text-anchor="middle" dominant-baseline="middle">Electron桌面端</text>
    <rect x="590" y="120" width="200" height="40" rx="6" fill="#FFFFFF" stroke="#64748B" stroke-width="1.5" />
    <text x="690" y="140" font-size="14" font-weight="bold" fill="#1F2937" text-anchor="middle" dominant-baseline="middle">系统通知/托盘</text>

    <!-- Layer 2 Content -->
    <rect x="60" y="260" width="840" height="60" rx="6" fill="none" stroke="#9CA3AF" stroke-width="1.5" stroke-dasharray="4,4" />
    <text x="60" y="252" font-size="12" fill="#4B5563" text-anchor="start" dominant-baseline="middle">页面模块 (Views)</text>
    
    <rect x="150" y="270" width="150" height="40" rx="6" fill="#ECFDF5" stroke="#34D399" stroke-width="1.5" />
    <text x="225" y="290" font-size="14" fill="#1F2937" text-anchor="middle" dominant-baseline="middle">ChatView</text>
    <rect x="320" y="270" width="150" height="40" rx="6" fill="#ECFDF5" stroke="#34D399" stroke-width="1.5" />
    <text x="395" y="290" font-size="14" fill="#1F2937" text-anchor="middle" dominant-baseline="middle">Content</text>
    <rect x="490" y="270" width="150" height="40" rx="6" fill="#ECFDF5" stroke="#34D399" stroke-width="1.5" />
    <text x="565" y="290" font-size="14" fill="#1F2937" text-anchor="middle" dominant-baseline="middle">ChatRoom</text>
    <rect x="660" y="270" width="150" height="40" rx="6" fill="#ECFDF5" stroke="#34D399" stroke-width="1.5" />
    <text x="735" y="290" font-size="14" fill="#1F2937" text-anchor="middle" dominant-baseline="middle">Favorites</text>

    <rect x="60" y="335" width="840" height="60" rx="6" fill="none" stroke="#9CA3AF" stroke-width="1.5" stroke-dasharray="4,4" />
    <text x="60" y="327" font-size="12" fill="#4B5563" text-anchor="start" dominant-baseline="middle">前端框架库 (Core Libs)</text>

    <rect x="90" y="345" width="140" height="40" rx="6" fill="#ECFDF5" stroke="#34D399" stroke-width="1.5" />
    <text x="160" y="365" font-size="14" fill="#1F2937" text-anchor="middle" dominant-baseline="middle">Vue 3</text>
    <rect x="250" y="345" width="140" height="40" rx="6" fill="#ECFDF5" stroke="#34D399" stroke-width="1.5" />
    <text x="320" y="365" font-size="14" fill="#1F2937" text-anchor="middle" dominant-baseline="middle">Vue Router</text>
    <rect x="410" y="345" width="140" height="40" rx="6" fill="#ECFDF5" stroke="#34D399" stroke-width="1.5" />
    <text x="480" y="365" font-size="14" fill="#1F2937" text-anchor="middle" dominant-baseline="middle">Pinia</text>
    <rect x="570" y="345" width="140" height="40" rx="6" fill="#ECFDF5" stroke="#34D399" stroke-width="1.5" />
    <text x="640" y="365" font-size="14" fill="#1F2937" text-anchor="middle" dominant-baseline="middle">Axios</text>
    <rect x="730" y="345" width="140" height="40" rx="6" fill="#ECFDF5" stroke="#34D399" stroke-width="1.5" />
    <text x="800" y="365" font-size="14" fill="#1F2937" text-anchor="middle" dominant-baseline="middle">Socket.IO Client</text>

    <!-- Layer 3 Content -->
    <rect x="60" y="480" width="840" height="60" rx="6" fill="none" stroke="#9CA3AF" stroke-width="1.5" stroke-dasharray="4,4" />
    <text x="60" y="472" font-size="12" fill="#4B5563" text-anchor="start" dominant-baseline="middle">API与通信接口</text>

    <rect x="100" y="490" width="170" height="40" rx="6" fill="#EFF6FF" stroke="#60A5FA" stroke-width="1.5" />
    <text x="185" y="510" font-size="14" fill="#1F2937" text-anchor="middle" dominant-baseline="middle">Express API</text>
    <rect x="290" y="490" width="170" height="40" rx="6" fill="#EFF6FF" stroke="#60A5FA" stroke-width="1.5" />
    <text x="375" y="510" font-size="14" fill="#1F2937" text-anchor="middle" dominant-baseline="middle">Socket.IO</text>
    <rect x="480" y="490" width="170" height="40" rx="6" fill="#EFF6FF" stroke="#60A5FA" stroke-width="1.5" />
    <text x="565" y="510" font-size="14" fill="#1F2937" text-anchor="middle" dominant-baseline="middle">JWT认证</text>
    <rect x="670" y="490" width="170" height="40" rx="6" fill="#EFF6FF" stroke="#60A5FA" stroke-width="1.5" />
    <text x="755" y="510" font-size="14" fill="#1F2937" text-anchor="middle" dominant-baseline="middle">Passport OAuth</text>

    <rect x="60" y="560" width="840" height="115" rx="6" fill="none" stroke="#9CA3AF" stroke-width="1.5" stroke-dasharray="4,4" />
    <text x="60" y="552" font-size="12" fill="#4B5563" text-anchor="start" dominant-baseline="middle">业务控制器 (Controllers)</text>

    <rect x="130" y="575" width="220" height="40" rx="6" fill="#EFF6FF" stroke="#60A5FA" stroke-width="1.5" />
    <text x="240" y="595" font-size="14" fill="#1F2937" text-anchor="middle" dominant-baseline="middle">ChatController</text>
    <rect x="370" y="575" width="220" height="40" rx="6" fill="#EFF6FF" stroke="#60A5FA" stroke-width="1.5" />
    <text x="480" y="595" font-size="14" fill="#1F2937" text-anchor="middle" dominant-baseline="middle">UserController</text>
    <rect x="610" y="575" width="220" height="40" rx="6" fill="#EFF6FF" stroke="#60A5FA" stroke-width="1.5" />
    <text x="720" y="595" font-size="14" fill="#1F2937" text-anchor="middle" dominant-baseline="middle">FavoriteController</text>

    <rect x="130" y="625" width="220" height="40" rx="6" fill="#FAF5FF" stroke="#C084FC" stroke-width="1.5" />
    <text x="240" y="645" font-size="14" fill="#1F2937" text-anchor="middle" dominant-baseline="middle">AIController</text>
    <rect x="370" y="625" width="220" height="40" rx="6" fill="#FAF5FF" stroke="#C084FC" stroke-width="1.5" />
    <text x="480" y="645" font-size="14" fill="#1F2937" text-anchor="middle" dominant-baseline="middle">ChatRoomAIController</text>
    <rect x="610" y="625" width="220" height="40" rx="6" fill="#FAF5FF" stroke="#C084FC" stroke-width="1.5" />
    <text x="720" y="645" font-size="14" fill="#1F2937" text-anchor="middle" dominant-baseline="middle">AgentController</text>

    <!-- Layer 4 Content -->
    <rect x="60" y="750" width="400" height="220" rx="6" fill="#F3F4F6" stroke="#D1D5DB" stroke-width="1.5" />
    <text x="260" y="770" font-size="15" font-weight="bold" fill="#1F2937" text-anchor="middle" dominant-baseline="middle">MongoDB 核心数据</text>

    <rect x="80" y="790" width="160" height="35" rx="6" fill="#F8FAFC" stroke="#94A3B8" stroke-width="1.5" />
    <text x="160" y="807.5" font-size="14" fill="#1F2937" text-anchor="middle" dominant-baseline="middle">Users</text>
    <rect x="260" y="790" width="160" height="35" rx="6" fill="#F8FAFC" stroke="#94A3B8" stroke-width="1.5" />
    <text x="340" y="807.5" font-size="14" fill="#1F2937" text-anchor="middle" dominant-baseline="middle">Messages</text>
    <rect x="80" y="835" width="160" height="35" rx="6" fill="#F8FAFC" stroke="#94A3B8" stroke-width="1.5" />
    <text x="160" y="852.5" font-size="14" fill="#1F2937" text-anchor="middle" dominant-baseline="middle">GroupMessage</text>
    <rect x="260" y="835" width="160" height="35" rx="6" fill="#F8FAFC" stroke="#94A3B8" stroke-width="1.5" />
    <text x="340" y="852.5" font-size="14" fill="#1F2937" text-anchor="middle" dominant-baseline="middle">Favorite</text>
    <rect x="80" y="880" width="160" height="35" rx="6" fill="#F8FAFC" stroke="#94A3B8" stroke-width="1.5" />
    <text x="160" y="897.5" font-size="14" fill="#1F2937" text-anchor="middle" dominant-baseline="middle">Summary</text>
    <rect x="260" y="880" width="160" height="35" rx="6" fill="#F8FAFC" stroke="#94A3B8" stroke-width="1.5" />
    <text x="340" y="897.5" font-size="14" fill="#1F2937" text-anchor="middle" dominant-baseline="middle">Uploads</text>
    <rect x="80" y="925" width="160" height="35" rx="6" fill="#F8FAFC" stroke="#94A3B8" stroke-width="1.5" />
    <text x="160" y="942.5" font-size="14" fill="#1F2937" text-anchor="middle" dominant-baseline="middle">AIConversation</text>

    <!-- AI Right -->
    <rect x="480" y="750" width="420" height="220" rx="6" fill="#F3F4F6" stroke="#D1D5DB" stroke-width="1.5" />
    <text x="690" y="770" font-size="15" font-weight="bold" fill="#1F2937" text-anchor="middle" dominant-baseline="middle">智能处理与检索模块</text>

    <rect x="500" y="790" width="380" height="40" rx="6" fill="#FAF5FF" stroke="#C084FC" stroke-width="1.5" />
    <text x="690" y="810" font-size="14" font-weight="bold" fill="#1F2937" text-anchor="middle" dominant-baseline="middle">MessageIndexer</text>
    <rect x="500" y="850" width="180" height="40" rx="6" fill="#FAF5FF" stroke="#C084FC" stroke-width="1.5" />
    <text x="590" y="870" font-size="14" font-weight="bold" fill="#1F2937" text-anchor="middle" dominant-baseline="middle">RAGService</text>
    <rect x="700" y="850" width="180" height="40" rx="6" fill="#FAF5FF" stroke="#C084FC" stroke-width="1.5" />
    <text x="790" y="870" font-size="14" font-weight="bold" fill="#1F2937" text-anchor="middle" dominant-baseline="middle">VectorSearchTool</text>
    <rect x="500" y="910" width="380" height="45" rx="6" fill="#FEF2F2" stroke="#F87171" stroke-width="1.5" />
    <text x="690" y="932.5" font-size="16" font-weight="bold" fill="#1F2937" text-anchor="middle" dominant-baseline="middle">DeepSeek API</text>

    <!-- Links Legend -->
    <rect x="40" y="1020" width="880" height="50" rx="6" fill="#FFFFFF" stroke="#D1D5DB" stroke-width="1.5" />
    <text x="120" y="1045" font-size="14" font-weight="bold" fill="#1F2937" text-anchor="start" dominant-baseline="middle">链路图例 (Legend):</text>

    <path d="M 280 1045 L 340 1045" stroke="#3B82F6" stroke-width="2" fill="none" stroke-linejoin="round" marker-end="url(#arrow_blue)" />
    <text x="355" y="1045" font-size="14" fill="#374151" text-anchor="start" dominant-baseline="middle">普通业务请求链路</text>

    <path d="M 500 1045 L 560 1045" stroke="#10B981" stroke-width="2" stroke-dasharray="6,4" fill="none" stroke-linejoin="round" marker-end="url(#arrow_green)" />
    <text x="575" y="1045" font-size="14" fill="#374151" text-anchor="start" dominant-baseline="middle">实时通信链路</text>

    <path d="M 700 1045 L 760 1045" stroke="#F59E0B" stroke-width="3" stroke-dasharray="8,4" fill="none" stroke-linejoin="round" marker-end="url(#arrow_orange)" />
    <text x="775" y="1045" font-size="14" fill="#374151" text-anchor="start" dominant-baseline="middle">AI 检索增强链路</text>

    <!-- Paths Routing -->
    <!-- 1. Normal Request (Blue Solid) -->
    <path d="M 250 160 L 250 240 L 640 240 L 640 345" stroke="#3B82F6" stroke-width="2" fill="none" stroke-linejoin="round" marker-end="url(#arrow_blue)" />
    <path d="M 470 160 L 470 220 L 640 220 L 640 345" stroke="#3B82F6" stroke-width="2" fill="none" stroke-linejoin="round" marker-end="url(#arrow_blue)" />
    <path d="M 640 385 L 640 450 L 185 450 L 185 490" stroke="#3B82F6" stroke-width="2" fill="none" stroke-linejoin="round" marker-end="url(#arrow_blue)" />
    
    <!-- Auth Links -->
    <path d="M 275 510 L 480 510" stroke="#3B82F6" stroke-width="2" fill="none" stroke-linejoin="round" marker-end="url(#arrow_blue)" />
    <path d="M 185 530 L 185 550 L 240 550 L 240 575" stroke="#3B82F6" stroke-width="2" fill="none" stroke-linejoin="round" marker-end="url(#arrow_blue)" />
    <path d="M 185 530 L 185 550 L 480 550 L 480 575" stroke="#3B82F6" stroke-width="2" fill="none" stroke-linejoin="round" marker-end="url(#arrow_blue)" />
    <path d="M 240 615 L 240 700 L 260 700 L 260 750" stroke="#3B82F6" stroke-width="2" fill="none" stroke-linejoin="round" marker-end="url(#arrow_blue)" />
    <path d="M 480 615 L 480 700 L 260 700 L 260 750" stroke="#3B82F6" stroke-width="2" fill="none" stroke-linejoin="round" marker-end="url(#arrow_blue)" />

    <!-- 2. Real-time Communication (Green Dashed) -->
    <path d="M 270 160 L 270 250 L 800 250 L 800 345" stroke="#10B981" stroke-width="2" stroke-dasharray="6,4" fill="none" stroke-linejoin="round" marker-end="url(#arrow_green)" />
    <path d="M 490 160 L 490 230 L 800 230 L 800 345" stroke="#10B981" stroke-width="2" stroke-dasharray="6,4" fill="none" stroke-linejoin="round" marker-end="url(#arrow_green)" />
    <path d="M 800 385 L 800 465 L 375 465 L 375 490" stroke="#10B981" stroke-width="2" stroke-dasharray="6,4" fill="none" stroke-linejoin="round" marker-end="url(#arrow_green)" />
    <path d="M 375 530 L 375 560 L 270 560 L 270 575" stroke="#10B981" stroke-width="2" stroke-dasharray="6,4" fill="none" stroke-linejoin="round" marker-end="url(#arrow_green)" />
    <path d="M 270 615 L 270 680 L 320 680 L 320 750" stroke="#10B981" stroke-width="2" stroke-dasharray="6,4" fill="none" stroke-linejoin="round" marker-end="url(#arrow_green)" />

    <!-- 3. AI RAG System (Orange Thick Dotted) -->
    <path d="M 155 530 L 155 610 L 240 610 L 240 625" stroke="#F59E0B" stroke-width="3" stroke-dasharray="8,4" fill="none" stroke-linejoin="round" marker-end="url(#arrow_orange)" />
    <path d="M 240 665 L 240 710 L 590 710 L 590 790" stroke="#F59E0B" stroke-width="3" stroke-dasharray="8,4" fill="none" stroke-linejoin="round" marker-end="url(#arrow_orange)" />
    <path d="M 480 665 L 480 720 L 790 720 L 790 790" stroke="#F59E0B" stroke-width="3" stroke-dasharray="8,4" fill="none" stroke-linejoin="round" marker-end="url(#arrow_orange)" />
    <path d="M 500 810 L 460 810" stroke="#F59E0B" stroke-width="3" stroke-dasharray="8,4" fill="none" stroke-linejoin="round" marker-end="url(#arrow_orange)" />
    <path d="M 590 890 L 590 910" stroke="#F59E0B" stroke-width="3" stroke-dasharray="8,4" fill="none" stroke-linejoin="round" marker-end="url(#arrow_orange)" />
    <path d="M 790 890 L 790 910" stroke="#F59E0B" stroke-width="3" stroke-dasharray="8,4" fill="none" stroke-linejoin="round" marker-end="url(#arrow_orange)" />
</svg>
